<svg width="1170.000000" height="217.500000" viewBox="0 0 1170 217.5" fill="none" xmlns="http://www.w3.org/2000/svg" xmlns:xlink="http://www.w3.org/1999/xlink">
	<desc>
			Created with Pixso.
	</desc>
	<defs/>
	<path id="Terms &amp; condition" d="M691.703 203.875L695.328 203.875L695.328 214L697.078 214L697.078 203.875L700.711 203.875L700.711 202.363L691.703 202.363L691.703 203.875ZM705.044 214.176C706.951 214.176 708.294 213.238 708.681 211.816L707.076 211.527C706.767 212.352 706.029 212.773 705.064 212.773C703.607 212.773 702.63 211.828 702.583 210.148L708.79 210.148L708.79 209.547C708.79 206.391 706.904 205.16 704.927 205.16C702.494 205.16 700.892 207.012 700.892 209.691C700.892 212.402 702.47 214.176 705.044 214.176ZM702.591 208.875C702.658 207.637 703.556 206.562 704.939 206.562C706.255 206.562 707.119 207.539 707.126 208.875L702.591 208.875ZM710.68 214L712.38 214L712.38 208.672C712.38 207.527 713.262 206.703 714.466 206.703C714.817 206.703 715.216 206.766 715.352 206.809L715.352 205.184C715.18 205.16 714.848 205.141 714.63 205.141C713.606 205.141 712.731 205.723 712.415 206.66L712.325 206.66L712.325 205.273L710.68 205.273L710.68 214ZM716.828 214L718.527 214L718.527 208.621C718.527 207.441 719.352 206.625 720.316 206.625C721.262 206.625 721.914 207.25 721.914 208.199L721.914 214L723.609 214L723.609 208.438C723.609 207.387 724.25 206.625 725.359 206.625C726.254 206.625 726.996 207.125 726.996 208.309L726.996 214L728.691 214L728.691 208.148C728.691 206.152 727.578 205.16 726 205.16C724.746 205.16 723.801 205.762 723.379 206.691L723.289 206.691C722.91 205.738 722.109 205.16 720.941 205.16C719.789 205.16 718.934 205.734 718.566 206.691L718.461 206.691L718.461 205.273L716.828 205.273L716.828 214ZM737.507 207.402C737.152 206.047 736.089 205.16 734.203 205.16C732.234 205.16 730.836 206.199 730.836 207.746C730.836 208.984 731.586 209.809 733.222 210.172L734.699 210.496C735.539 210.684 735.933 211.059 735.933 211.602C735.933 212.277 735.211 212.809 734.097 212.809C733.078 212.809 732.425 212.371 732.222 211.512L730.578 211.762C730.863 213.309 732.148 214.176 734.109 214.176C736.214 214.176 737.675 213.059 737.675 211.477C737.675 210.246 736.89 209.484 735.289 209.113L733.902 208.797C732.945 208.566 732.527 208.246 732.535 207.652C732.527 206.984 733.257 206.504 734.222 206.504C735.277 206.504 735.765 207.09 735.964 207.676L737.507 207.402ZM747.164 214.164C748.214 214.164 749.382 213.812 750.164 213.078L750.949 214L752.871 214L751.214 212.023C751.711 211.363 752.183 210.328 752.183 208.715L750.648 208.715C750.648 209.496 750.464 210.188 750.164 210.766L747.836 207.984L748.632 207.398C749.597 206.691 750.175 205.879 750.175 204.773C750.175 203.414 749.078 202.238 747.289 202.238C745.515 202.238 744.351 203.379 744.351 204.988C744.351 206.027 744.898 206.852 745.632 207.746C744.3 208.664 743.398 209.523 743.398 210.91C743.398 212.777 744.824 214.164 747.164 214.164ZM749.211 211.953C748.609 212.453 747.886 212.727 747.172 212.727C745.91 212.727 745.086 211.871 745.086 210.863C745.086 210.504 745.386 209.789 746.297 209.121L746.601 208.891L749.211 211.953ZM746.898 206.852C746.371 206.203 745.953 205.609 745.953 205.016C745.953 204.34 746.511 203.66 747.328 203.66C748.113 203.66 748.625 204.273 748.625 204.816C748.625 205.512 748.246 205.934 747.613 206.348L746.898 206.852ZM762.106 214.176C764.169 214.176 765.505 212.938 765.692 211.238L764.04 211.238C763.825 212.184 763.091 212.738 762.118 212.738C760.68 212.738 759.755 211.539 759.755 209.637C759.755 207.766 760.7 206.59 762.118 206.59C763.2 206.59 763.856 207.273 764.04 208.09L765.692 208.09C765.512 206.328 764.075 205.16 762.091 205.16C759.63 205.16 758.04 207.012 758.04 209.676C758.04 212.309 759.575 214.176 762.106 214.176ZM771.191 214.176C773.652 214.176 775.262 212.375 775.262 209.676C775.262 206.961 773.652 205.16 771.191 205.16C768.734 205.16 767.125 206.961 767.125 209.676C767.125 212.375 768.734 214.176 771.191 214.176ZM771.199 212.75C769.59 212.75 768.84 211.348 768.84 209.672C768.84 208 769.59 206.578 771.199 206.578C772.797 206.578 773.547 208 773.547 209.672C773.547 211.348 772.797 212.75 771.199 212.75ZM778.851 208.816C778.851 207.426 779.703 206.629 780.886 206.629C782.039 206.629 782.738 207.387 782.738 208.652L782.738 214L784.437 214L784.437 208.449C784.437 206.289 783.25 205.16 781.464 205.16C780.152 205.16 779.297 205.766 778.89 206.691L778.785 206.691L778.785 205.273L777.152 205.273L777.152 214L778.851 214L778.851 208.816ZM789.978 214.172C791.568 214.172 792.193 213.199 792.502 212.641L792.642 212.641L792.642 214L794.303 214L794.303 202.363L792.603 202.363L792.603 206.688L792.502 206.688C792.193 206.148 791.615 205.16 789.99 205.16C787.881 205.16 786.33 206.824 786.33 209.652C786.33 212.477 787.857 214.172 789.978 214.172ZM790.353 212.723C788.834 212.723 788.045 211.387 788.045 209.637C788.045 207.902 788.818 206.602 790.353 206.602C791.834 206.602 792.631 207.812 792.631 209.637C792.631 211.473 791.818 212.723 790.353 212.723ZM796.72 214L798.419 214L798.419 205.273L796.72 205.273L796.72 214ZM797.58 203.926C798.165 203.926 798.654 203.473 798.654 202.914C798.654 202.359 798.165 201.898 797.58 201.898C796.99 201.898 796.505 202.359 796.505 202.914C796.505 203.473 796.99 203.926 797.58 203.926ZM804.777 205.273L802.988 205.273L802.988 203.184L801.289 203.184L801.289 205.273L800.012 205.273L800.012 206.637L801.289 206.637L801.289 211.789C801.285 213.375 802.496 214.141 803.836 214.113C804.375 214.109 804.738 214.004 804.938 213.934L804.629 212.527C804.516 212.551 804.309 212.602 804.035 212.602C803.484 212.602 802.988 212.422 802.988 211.438L802.988 206.637L804.777 206.637L804.777 205.273ZM806.652 214L808.351 214L808.351 205.273L806.652 205.273L806.652 214ZM807.511 203.926C808.097 203.926 808.586 203.473 808.586 202.914C808.586 202.359 808.097 201.898 807.511 201.898C806.922 201.898 806.437 202.359 806.437 202.914C806.437 203.473 806.922 203.926 807.511 203.926ZM814.311 214.176C816.772 214.176 818.381 212.375 818.381 209.676C818.381 206.961 816.772 205.16 814.311 205.16C811.854 205.16 810.244 206.961 810.244 209.676C810.244 212.375 811.854 214.176 814.311 214.176ZM814.319 212.75C812.709 212.75 811.959 211.348 811.959 209.672C811.959 208 812.709 206.578 814.319 206.578C815.916 206.578 816.666 208 816.666 209.672C816.666 211.348 815.916 212.75 814.319 212.75ZM821.971 208.816C821.971 207.426 822.822 206.629 824.006 206.629C825.158 206.629 825.857 207.387 825.857 208.652L825.857 214L827.556 214L827.556 208.449C827.556 206.289 826.369 205.16 824.584 205.16C823.271 205.16 822.416 205.766 822.01 206.691L821.904 206.691L821.904 205.273L820.271 205.273L820.271 214L821.971 214L821.971 208.816Z" fill="#FFFFFF" fill-opacity="1.000000" fill-rule="evenodd"/>
	<path id="Return &amp; refund policy" d="M862.277 214L864.035 214L864.035 209.598L866.422 209.598C866.461 209.598 866.496 209.598 866.535 209.598L868.898 214L870.898 214L868.316 209.289C869.746 208.762 870.453 207.574 870.453 206.012C870.453 203.871 869.125 202.363 866.426 202.363L862.277 202.363L862.277 214ZM864.035 208.086L864.035 203.871L866.238 203.871C867.973 203.871 868.688 204.691 868.688 206.012C868.688 207.324 867.973 208.086 866.262 208.086L864.035 208.086ZM876.113 214.176C878.019 214.176 879.363 213.238 879.749 211.816L878.144 211.527C877.835 212.352 877.097 212.773 876.132 212.773C874.675 212.773 873.698 211.828 873.652 210.148L879.859 210.148L879.859 209.547C879.859 206.391 877.972 205.16 875.995 205.16C873.562 205.16 871.96 207.012 871.96 209.691C871.96 212.402 873.538 214.176 876.113 214.176ZM873.659 208.875C873.726 207.637 874.624 206.562 876.007 206.562C877.323 206.562 878.187 207.539 878.195 208.875L873.659 208.875ZM885.823 205.273L884.034 205.273L884.034 203.184L882.335 203.184L882.335 205.273L881.057 205.273L881.057 206.637L882.335 206.637L882.335 211.789C882.331 213.375 883.542 214.141 884.881 214.113C885.42 214.109 885.784 214.004 885.983 213.934L885.674 212.527C885.561 212.551 885.354 212.602 885.081 212.602C884.53 212.602 884.034 212.422 884.034 211.438L884.034 206.637L885.823 206.637L885.823 205.273ZM893.229 210.379C893.233 211.863 892.131 212.566 891.178 212.566C890.123 212.566 889.397 211.809 889.397 210.621L889.397 205.273L887.697 205.273L887.697 210.824C887.697 212.988 888.885 214.113 890.561 214.113C891.873 214.113 892.768 213.422 893.17 212.488L893.26 212.488L893.26 214L894.932 214L894.932 205.273L893.229 205.273L893.229 210.379ZM897.209 214L898.908 214L898.908 208.672C898.908 207.527 899.791 206.703 900.994 206.703C901.346 206.703 901.744 206.766 901.881 206.809L901.881 205.184C901.709 205.16 901.377 205.141 901.158 205.141C900.135 205.141 899.26 205.723 898.943 206.66L898.853 206.66L898.853 205.273L897.209 205.273L897.209 214ZM905.056 208.816C905.056 207.426 905.907 206.629 907.091 206.629C908.243 206.629 908.943 207.387 908.943 208.652L908.943 214L910.642 214L910.642 208.449C910.642 206.289 909.454 205.16 907.669 205.16C906.357 205.16 905.501 205.766 905.095 206.691L904.989 206.691L904.989 205.273L903.357 205.273L903.357 214L905.056 214L905.056 208.816ZM920.539 214.164C921.589 214.164 922.757 213.812 923.539 213.078L924.324 214L926.246 214L924.589 212.023C925.086 211.363 925.558 210.328 925.558 208.715L924.023 208.715C924.023 209.496 923.839 210.188 923.539 210.766L921.211 207.984L922.007 207.398C922.972 206.691 923.55 205.879 923.55 204.773C923.55 203.414 922.453 202.238 920.664 202.238C918.89 202.238 917.726 203.379 917.726 204.988C917.726 206.027 918.273 206.852 919.007 207.746C917.675 208.664 916.773 209.523 916.773 210.91C916.773 212.777 918.199 214.164 920.539 214.164ZM922.586 211.953C921.984 212.453 921.261 212.727 920.547 212.727C919.285 212.727 918.461 211.871 918.461 210.863C918.461 210.504 918.761 209.789 919.672 209.121L919.976 208.891L922.586 211.953ZM920.273 206.852C919.746 206.203 919.328 205.609 919.328 205.016C919.328 204.34 919.886 203.66 920.703 203.66C921.488 203.66 922 204.273 922 204.816C922 205.512 921.621 205.934 920.988 206.348L920.273 206.852ZM931.805 214L933.505 214L933.505 208.672C933.505 207.527 934.387 206.703 935.591 206.703C935.942 206.703 936.341 206.766 936.477 206.809L936.477 205.184C936.305 205.16 935.973 205.141 935.755 205.141C934.731 205.141 933.856 205.723 933.54 206.66L933.45 206.66L933.45 205.273L931.805 205.273L931.805 214ZM941.397 214.176C943.303 214.176 944.647 213.238 945.033 211.816L943.428 211.527C943.119 212.352 942.381 212.773 941.416 212.773C939.959 212.773 938.983 211.828 938.936 210.148L945.143 210.148L945.143 209.547C945.143 206.391 943.256 205.16 941.279 205.16C938.846 205.16 937.244 207.012 937.244 209.691C937.244 212.402 938.822 214.176 941.397 214.176ZM938.944 208.875C939.01 207.637 939.908 206.562 941.291 206.562C942.608 206.562 943.471 207.539 943.479 208.875L938.944 208.875ZM951.189 205.273L949.306 205.273L949.306 204.488C949.306 203.715 949.626 203.297 950.455 203.297C950.806 203.297 951.056 203.375 951.216 203.426L951.615 202.051C951.376 201.961 950.88 201.816 950.193 201.816C948.814 201.816 947.603 202.625 947.603 204.262L947.603 205.273L946.255 205.273L946.255 206.637L947.603 206.637L947.603 214L949.306 214L949.306 206.637L951.189 206.637L951.189 205.273ZM958.467 210.379C958.471 211.863 957.37 212.566 956.417 212.566C955.362 212.566 954.635 211.809 954.635 210.621L954.635 205.273L952.936 205.273L952.936 210.824C952.936 212.988 954.124 214.113 955.799 214.113C957.112 214.113 958.006 213.422 958.409 212.488L958.499 212.488L958.499 214L960.17 214L960.17 205.273L958.467 205.273L958.467 210.379ZM964.147 208.816C964.147 207.426 964.998 206.629 966.182 206.629C967.334 206.629 968.033 207.387 968.033 208.652L968.033 214L969.733 214L969.733 208.449C969.733 206.289 968.545 205.16 966.76 205.16C965.447 205.16 964.592 205.766 964.186 206.691L964.08 206.691L964.08 205.273L962.447 205.273L962.447 214L964.147 214L964.147 208.816ZM975.274 214.172C976.864 214.172 977.489 213.199 977.797 212.641L977.938 212.641L977.938 214L979.598 214L979.598 202.363L977.899 202.363L977.899 206.688L977.797 206.688C977.489 206.148 976.911 205.16 975.286 205.16C973.176 205.16 971.625 206.824 971.625 209.652C971.625 212.477 973.153 214.172 975.274 214.172ZM975.649 212.723C974.129 212.723 973.34 211.387 973.34 209.637C973.34 207.902 974.114 206.602 975.649 206.602C977.129 206.602 977.926 207.812 977.926 209.637C977.926 211.473 977.114 212.723 975.649 212.723ZM986.254 217.273L987.953 217.273L987.953 212.641L988.055 212.641C988.364 213.199 988.989 214.172 990.578 214.172C992.692 214.172 994.227 212.477 994.227 209.652C994.227 206.824 992.672 205.16 990.563 205.16C988.942 205.16 988.36 206.148 988.055 206.688L987.914 206.688L987.914 205.273L986.254 205.273L986.254 217.273ZM987.922 209.637C987.922 207.812 988.715 206.602 990.2 206.602C991.739 206.602 992.512 207.902 992.512 209.637C992.512 211.387 991.715 212.723 990.2 212.723C988.739 212.723 987.922 211.473 987.922 209.637ZM999.805 214.176C1002.27 214.176 1003.88 212.375 1003.88 209.676C1003.88 206.961 1002.27 205.16 999.805 205.16C997.348 205.16 995.739 206.961 995.739 209.676C995.739 212.375 997.348 214.176 999.805 214.176ZM999.813 212.75C998.203 212.75 997.453 211.348 997.453 209.672C997.453 208 998.203 206.578 999.813 206.578C1001.41 206.578 1002.16 208 1002.16 209.672C1002.16 211.348 1001.41 212.75 999.813 212.75ZM1007.46 202.363L1005.77 202.363L1005.77 214L1007.46 214L1007.46 202.363ZM1009.75 214L1011.45 214L1011.45 205.273L1009.75 205.273L1009.75 214ZM1010.61 203.926C1011.19 203.926 1011.68 203.473 1011.68 202.914C1011.68 202.359 1011.19 201.898 1010.61 201.898C1010.02 201.898 1009.53 202.359 1009.53 202.914C1009.53 203.473 1010.02 203.926 1010.61 203.926ZM1017.41 214.176C1019.47 214.176 1020.81 212.938 1020.99 211.238L1019.34 211.238C1019.13 212.184 1018.39 212.738 1017.42 212.738C1015.98 212.738 1015.06 211.539 1015.06 209.637C1015.06 207.766 1016 206.59 1017.42 206.59C1018.5 206.59 1019.16 207.273 1019.34 208.09L1020.99 208.09C1020.81 206.328 1019.38 205.16 1017.39 205.16C1014.93 205.16 1013.34 207.012 1013.34 209.676C1013.34 212.309 1014.88 214.176 1017.41 214.176ZM1023.89 217.273C1025.3 217.273 1026.18 216.539 1026.69 215.164L1030.29 205.273L1028.46 205.273L1026.25 212.047L1026.16 212.047L1023.95 205.273L1022.13 205.273L1025.32 214.113L1025.11 214.691C1024.68 215.852 1024.07 215.949 1023.14 215.691L1022.73 217.086C1022.94 217.176 1023.38 217.273 1023.89 217.273Z" fill="#FFFFFF" fill-opacity="1.000000" fill-rule="evenodd"/>
	<path id="Privacy policy" d="M1064.28 214L1066.04 214L1066.04 209.91L1068.42 209.91C1071.12 209.91 1072.45 208.277 1072.45 206.129C1072.45 203.988 1071.13 202.363 1068.43 202.363L1064.28 202.363L1064.28 214ZM1066.04 208.422L1066.04 203.871L1068.24 203.871C1069.98 203.871 1070.69 204.812 1070.69 206.129C1070.69 207.449 1069.98 208.422 1068.26 208.422L1066.04 208.422ZM1074.37 214L1076.07 214L1076.07 208.672C1076.07 207.527 1076.95 206.703 1078.15 206.703C1078.5 206.703 1078.9 206.766 1079.04 206.809L1079.04 205.184C1078.87 205.16 1078.54 205.141 1078.32 205.141C1077.29 205.141 1076.42 205.723 1076.1 206.66L1076.01 206.66L1076.01 205.273L1074.37 205.273L1074.37 214ZM1080.52 214L1082.21 214L1082.21 205.273L1080.52 205.273L1080.52 214ZM1081.38 203.926C1081.96 203.926 1082.45 203.473 1082.45 202.914C1082.45 202.359 1081.96 201.898 1081.38 201.898C1080.79 201.898 1080.3 202.359 1080.3 202.914C1080.3 203.473 1080.79 203.926 1081.38 203.926ZM1091.97 205.273L1090.14 205.273L1087.94 211.988L1087.85 211.988L1085.64 205.273L1083.81 205.273L1086.98 214L1088.8 214L1091.97 205.273ZM1095.84 214.191C1097.28 214.191 1098.1 213.461 1098.42 212.809L1098.49 212.809L1098.49 214L1100.15 214L1100.15 208.203C1100.15 205.664 1098.15 205.16 1096.76 205.16C1095.18 205.16 1093.73 205.797 1093.16 207.387L1094.76 207.75C1095.01 207.129 1095.64 206.535 1096.78 206.535C1097.88 206.535 1098.44 207.109 1098.44 208.098L1098.44 208.137C1098.44 208.754 1097.81 208.746 1096.24 208.926C1094.58 209.121 1092.89 209.551 1092.89 211.535C1092.89 213.25 1094.18 214.191 1095.84 214.191ZM1096.21 212.828C1095.25 212.828 1094.56 212.398 1094.56 211.559C1094.56 210.648 1095.36 210.324 1096.35 210.191C1096.9 210.121 1098.21 209.973 1098.45 209.727L1098.45 210.852C1098.45 211.887 1097.62 212.828 1096.21 212.828ZM1106.08 214.176C1108.15 214.176 1109.48 212.938 1109.67 211.238L1108.02 211.238C1107.8 212.184 1107.07 212.738 1106.1 212.738C1104.66 212.738 1103.73 211.539 1103.73 209.637C1103.73 207.766 1104.68 206.59 1106.1 206.59C1107.18 206.59 1107.83 207.273 1108.02 208.09L1109.67 208.09C1109.49 206.328 1108.05 205.16 1106.07 205.16C1103.61 205.16 1102.02 207.012 1102.02 209.676C1102.02 212.309 1103.55 214.176 1106.08 214.176ZM1112.57 217.273C1113.97 217.273 1114.86 216.539 1115.36 215.164L1118.96 205.273L1117.14 205.273L1114.93 212.047L1114.84 212.047L1112.63 205.273L1110.81 205.273L1114 214.113L1113.79 214.691C1113.36 215.852 1112.75 215.949 1111.82 215.691L1111.41 217.086C1111.61 217.176 1112.06 217.273 1112.57 217.273ZM1124.79 217.273L1126.49 217.273L1126.49 212.641L1126.59 212.641C1126.9 213.199 1127.53 214.172 1129.12 214.172C1131.23 214.172 1132.77 212.477 1132.77 209.652C1132.77 206.824 1131.21 205.16 1129.1 205.16C1127.48 205.16 1126.9 206.148 1126.59 206.688L1126.45 206.688L1126.45 205.273L1124.79 205.273L1124.79 217.273ZM1126.46 209.637C1126.46 207.812 1127.26 206.602 1128.74 206.602C1130.28 206.602 1131.05 207.902 1131.05 209.637C1131.05 211.387 1130.26 212.723 1128.74 212.723C1127.28 212.723 1126.46 211.473 1126.46 209.637ZM1138.34 214.176C1140.81 214.176 1142.42 212.375 1142.42 209.676C1142.42 206.961 1140.81 205.16 1138.34 205.16C1135.89 205.16 1134.28 206.961 1134.28 209.676C1134.28 212.375 1135.89 214.176 1138.34 214.176ZM1138.35 212.75C1136.74 212.75 1135.99 211.348 1135.99 209.672C1135.99 208 1136.74 206.578 1138.35 206.578C1139.95 206.578 1140.7 208 1140.7 209.672C1140.7 211.348 1139.95 212.75 1138.35 212.75ZM1146 202.363L1144.31 202.363L1144.31 214L1146 214L1146 202.363ZM1148.29 214L1149.99 214L1149.99 205.273L1148.29 205.273L1148.29 214ZM1149.15 203.926C1149.73 203.926 1150.22 203.473 1150.22 202.914C1150.22 202.359 1149.73 201.898 1149.15 201.898C1148.56 201.898 1148.07 202.359 1148.07 202.914C1148.07 203.473 1148.56 203.926 1149.15 203.926ZM1155.95 214.176C1158.01 214.176 1159.35 212.938 1159.53 211.238L1157.88 211.238C1157.67 212.184 1156.93 212.738 1155.96 212.738C1154.52 212.738 1153.6 211.539 1153.6 209.637C1153.6 207.766 1154.54 206.59 1155.96 206.59C1157.04 206.59 1157.7 207.273 1157.88 208.09L1159.53 208.09C1159.35 206.328 1157.92 205.16 1155.93 205.16C1153.47 205.16 1151.88 207.012 1151.88 209.676C1151.88 212.309 1153.42 214.176 1155.95 214.176ZM1162.43 217.273C1163.84 217.273 1164.72 216.539 1165.23 215.164L1168.83 205.273L1167 205.273L1164.79 212.047L1164.7 212.047L1162.49 205.273L1160.67 205.273L1163.86 214.113L1163.65 214.691C1163.22 215.852 1162.61 215.949 1161.68 215.691L1161.27 217.086C1161.48 217.176 1161.92 217.273 1162.43 217.273Z" fill="#FFFFFF" fill-opacity="1.000000" fill-rule="evenodd"/>
	<path id="@all rights reserved, P-Ticket services limited.2024" d="M7.93359 216.566C9.08984 216.566 10.5664 216.227 11.2734 215.934L10.9531 214.887C10.5469 215.023 9.22656 215.477 7.97656 215.477C4.08984 215.477 2.02344 213.297 2.02344 209.434C2.02344 205.637 4.13672 203.363 7.70312 203.363C11.3164 203.363 13.0234 205.91 13.0234 208.453C13.0234 211.047 12.75 212.203 11.5898 212.203C10.9102 212.203 10.5469 211.637 10.5469 211L10.5469 205.863L9.33984 205.863L9.33984 206.5L9.27344 206.5C9.11328 206 8.22656 205.566 7.08984 205.684C5.38672 205.863 4.08984 207.273 4.08984 209.316C4.08984 211.477 5.11328 213.137 7.08984 213.203C8.38672 213.25 9.06641 212.613 9.33984 211.953L9.41016 211.953C9.54688 212.934 10.7734 213.273 11.5664 213.273C13.9766 213.273 14.2031 210.684 14.2031 208.477C14.2031 205.363 12.0234 202.297 7.77344 202.297C3.38672 202.297 0.773438 204.953 0.773438 209.387C0.773438 213.977 3.29688 216.566 7.93359 216.566ZM7.27344 212.047C5.79688 212.047 5.27344 210.703 5.27344 209.25C5.27344 207.934 6.02344 206.797 7.31641 206.797C8.68359 206.797 9.41016 207.34 9.41016 209.25C9.41016 211.137 8.79688 212.047 7.27344 212.047ZM18.7741 213.703C20.2937 213.703 21.0906 212.887 21.364 212.316L21.4304 212.316L21.4304 213.5L22.7741 213.5L22.7741 207.75C22.7741 204.977 20.6609 204.66 19.5437 204.66C18.2273 204.66 16.7273 205.113 16.0437 206.703L17.3171 207.16C17.614 206.523 18.3132 205.84 19.5906 205.84C20.8249 205.84 21.4304 206.496 21.4304 207.613L21.4304 207.66C21.4304 208.309 20.7741 208.25 19.1804 208.453C17.5632 208.664 15.7937 209.023 15.7937 211.023C15.7937 212.727 17.114 213.703 18.7741 213.703ZM18.9773 212.5C17.9109 212.5 17.1374 212.023 17.1374 211.09C17.1374 210.066 18.0671 209.75 19.114 209.613C19.6804 209.547 21.2038 209.387 21.4304 209.113L21.4304 210.34C21.4304 211.434 20.5671 212.5 18.9773 212.5ZM26.5664 201.863L25.2266 201.863L25.2266 213.5L26.5664 213.5L26.5664 201.863ZM30.3619 201.863L29.022 201.863L29.022 213.5L30.3619 213.5L30.3619 201.863ZM37.3175 213.5L38.6573 213.5L38.6573 207.977C38.6573 206.797 39.5909 205.934 40.8643 205.934C41.2198 205.934 41.5909 206 41.6808 206.023L41.6808 204.66C41.5284 204.648 41.1768 204.637 40.9776 204.637C39.9308 204.637 39.0245 205.227 38.7042 206.09L38.6143 206.09L38.6143 204.773L37.3175 204.773L37.3175 213.5ZM43.272 213.5L44.6119 213.5L44.6119 204.773L43.272 204.773L43.272 213.5ZM43.9556 203.316C44.479 203.316 44.9087 202.91 44.9087 202.41C44.9087 201.91 44.479 201.5 43.9556 201.5C43.4322 201.5 42.9986 201.91 42.9986 202.41C42.9986 202.91 43.4322 203.316 43.9556 203.316ZM50.5909 216.953C52.6808 216.953 54.3643 216 54.3643 213.75L54.3643 204.773L53.0675 204.773L53.0675 206.16L52.9308 206.16C52.6378 205.703 52.0909 204.66 50.3878 204.66C48.1808 204.66 46.6573 206.41 46.6573 209.09C46.6573 211.816 48.2511 213.363 50.3643 213.363C52.0675 213.363 52.6143 212.363 52.9073 211.887L53.0245 211.887L53.0245 213.66C53.0245 215.113 52.0011 215.773 50.5909 215.773C49.005 215.773 48.4503 214.938 48.0909 214.453L47.0245 215.203C47.5675 216.121 48.6417 216.953 50.5909 216.953ZM50.544 212.16C48.8643 212.16 48.0011 210.887 48.0011 209.066C48.0011 207.297 48.8409 205.863 50.544 205.863C52.1808 205.863 53.044 207.184 53.044 209.066C53.044 211 52.1573 212.16 50.544 212.16ZM58.1573 208.25C58.1573 206.727 59.13 205.863 60.4542 205.863C61.7159 205.863 62.4776 206.66 62.4776 208.047L62.4776 213.5L63.8175 213.5L63.8175 207.953C63.8175 205.711 62.6261 204.66 60.8409 204.66C59.4659 204.66 58.6808 205.234 58.2745 206.137L58.1573 206.137L58.1573 201.863L56.8175 201.863L56.8175 213.5L58.1573 213.5L58.1573 208.25ZM70.0689 204.773L68.2056 204.773L68.2056 202.684L66.8619 202.684L66.8619 204.773L65.5455 204.773L65.5455 205.91L66.8619 205.91L66.8619 211.363C66.8619 212.887 68.0923 213.613 69.229 213.613C69.729 213.613 70.0455 213.523 70.229 213.453L69.9556 212.25C69.8423 212.273 69.6587 212.316 69.3619 212.316C68.772 212.316 68.2056 212.137 68.2056 211L68.2056 205.91L70.0689 205.91L70.0689 204.773ZM78.1147 206.727C77.6928 205.488 76.7514 204.66 75.021 204.66C73.1811 204.66 71.8178 205.703 71.8178 207.184C71.8178 208.387 72.5327 209.191 74.1381 209.566L75.5913 209.91C76.4702 210.113 76.8881 210.535 76.8881 211.137C76.8881 211.887 76.0913 212.5 74.8413 212.5C73.7436 212.5 73.0561 212.027 72.8178 211.09L71.5444 211.41C71.8569 212.891 73.0795 213.684 74.8647 213.684C76.892 213.684 78.271 212.574 78.271 211.066C78.271 209.852 77.5131 209.086 75.9545 208.703L74.6577 208.387C73.6264 208.129 73.1577 207.785 73.1577 207.113C73.1577 206.363 73.9545 205.816 75.021 205.816C76.1928 205.816 76.6772 206.465 76.9077 207.066L78.1147 206.727ZM84.7947 213.5L86.1346 213.5L86.1346 207.977C86.1346 206.797 87.0682 205.934 88.3416 205.934C88.6971 205.934 89.0682 206 89.158 206.023L89.158 204.66C89.0057 204.648 88.6541 204.637 88.4549 204.637C87.408 204.637 86.5018 205.227 86.1815 206.09L86.0916 206.09L86.0916 204.773L84.7947 204.773L84.7947 213.5ZM94.1367 213.684C95.9102 213.684 97.2031 212.797 97.6133 211.477L96.3164 211.113C95.9766 212.023 95.1875 212.477 94.1367 212.477C92.5625 212.477 91.4766 211.461 91.4141 209.59L97.75 209.59L97.75 209.023C97.75 205.773 95.8164 204.66 94 204.66C91.6367 204.66 90.0664 206.523 90.0664 209.203C90.0664 211.887 91.6133 213.684 94.1367 213.684ZM91.4141 208.434C91.5039 207.074 92.4648 205.863 94 205.863C95.4531 205.863 96.3867 206.953 96.3867 208.434L91.4141 208.434ZM105.978 206.727C105.556 205.488 104.615 204.66 102.885 204.66C101.045 204.66 99.6815 205.703 99.6815 207.184C99.6815 208.387 100.396 209.191 102.002 209.566L103.455 209.91C104.334 210.113 104.752 210.535 104.752 211.137C104.752 211.887 103.955 212.5 102.705 212.5C101.607 212.5 100.92 212.027 100.681 211.09L99.408 211.41C99.7205 212.891 100.943 213.684 102.728 213.684C104.756 213.684 106.135 212.574 106.135 211.066C106.135 209.852 105.377 209.086 103.818 208.703L102.521 208.387C101.49 208.129 101.021 207.785 101.021 207.113C101.021 206.363 101.818 205.816 102.885 205.816C104.056 205.816 104.541 206.465 104.771 207.066L105.978 206.727ZM111.819 213.684C113.592 213.684 114.885 212.797 115.295 211.477L113.998 211.113C113.658 212.023 112.869 212.477 111.819 212.477C110.244 212.477 109.158 211.461 109.096 209.59L115.432 209.59L115.432 209.023C115.432 205.773 113.498 204.66 111.682 204.66C109.319 204.66 107.748 206.523 107.748 209.203C107.748 211.887 109.295 213.684 111.819 213.684ZM109.096 208.434C109.186 207.074 110.147 205.863 111.682 205.863C113.135 205.863 114.069 206.953 114.069 208.434L109.096 208.434ZM117.477 213.5L118.816 213.5L118.816 207.977C118.816 206.797 119.75 205.934 121.023 205.934C121.379 205.934 121.75 206 121.84 206.023L121.84 204.66C121.688 204.648 121.336 204.637 121.137 204.637C120.09 204.637 119.184 205.227 118.863 206.09L118.773 206.09L118.773 204.773L117.477 204.773L117.477 213.5ZM130.841 204.773L129.387 204.773L126.977 211.727L126.887 211.727L124.477 204.773L123.024 204.773L126.251 213.5L127.614 213.5L130.841 204.773ZM135.955 213.684C137.728 213.684 139.021 212.797 139.431 211.477L138.135 211.113C137.795 212.023 137.006 212.477 135.955 212.477C134.381 212.477 133.295 211.461 133.232 209.59L139.568 209.59L139.568 209.023C139.568 205.773 137.635 204.66 135.818 204.66C133.455 204.66 131.885 206.523 131.885 209.203C131.885 211.887 133.431 213.684 135.955 213.684ZM133.232 208.434C133.322 207.074 134.283 205.863 135.818 205.863C137.271 205.863 138.205 206.953 138.205 208.434L133.232 208.434ZM144.91 213.684C146.589 213.684 147.16 212.637 147.453 212.16L147.613 212.16L147.613 213.5L148.91 213.5L148.91 201.863L147.57 201.863L147.57 206.16L147.453 206.16C147.16 205.703 146.636 204.66 144.933 204.66C142.726 204.66 141.203 206.41 141.203 209.16C141.203 211.934 142.726 213.684 144.91 213.684ZM145.089 212.477C143.41 212.477 142.547 211 142.547 209.137C142.547 207.297 143.386 205.863 145.089 205.863C146.726 205.863 147.589 207.184 147.589 209.137C147.589 211.113 146.703 212.477 145.089 212.477ZM153.545 211.91L152.092 211.91L152.021 212.547C151.857 214.086 151.533 215.621 151.385 216.34L152.408 216.34C152.681 215.566 153.26 213.816 153.455 212.523L153.545 211.91ZM160.706 213.5L162.112 213.5L162.112 209.25L164.659 209.25C167.37 209.25 168.592 207.602 168.592 205.547C168.592 203.488 167.37 201.863 164.635 201.863L160.706 201.863L160.706 213.5ZM162.112 208L162.112 203.113L164.592 203.113C166.483 203.113 167.206 204.148 167.206 205.547C167.206 206.941 166.483 208 164.612 208L162.112 208ZM174.954 207.059L169.864 207.059L169.864 208.309L174.954 208.309L174.954 207.059ZM175.683 203.113L179.343 203.113L179.343 213.5L180.749 213.5L180.749 203.113L184.409 203.113L184.409 201.863L175.683 201.863L175.683 203.113ZM186.408 213.5L187.748 213.5L187.748 204.773L186.408 204.773L186.408 213.5ZM187.092 203.316C187.615 203.316 188.045 202.91 188.045 202.41C188.045 201.91 187.615 201.5 187.092 201.5C186.569 201.5 186.135 201.91 186.135 202.41C186.135 202.91 186.569 203.316 187.092 203.316ZM193.751 213.684C195.68 213.684 196.954 212.5 197.18 210.953L195.841 210.953C195.591 211.91 194.794 212.477 193.751 212.477C192.161 212.477 191.137 211.16 191.137 209.137C191.137 207.16 192.18 205.863 193.751 205.863C194.93 205.863 195.637 206.59 195.841 207.387L197.18 207.387C196.954 205.75 195.567 204.66 193.727 204.66C191.364 204.66 189.794 206.523 189.794 209.184C189.794 211.797 191.294 213.684 193.751 213.684ZM199.136 213.5L200.476 213.5L200.476 210.234L201.413 209.363L204.683 213.5L206.386 213.5L202.425 208.5L206.112 204.773L204.456 204.773L200.636 208.66L200.476 208.66L200.476 201.863L199.136 201.863L199.136 213.5ZM211.137 213.684C212.91 213.684 214.203 212.797 214.613 211.477L213.316 211.113C212.977 212.023 212.188 212.477 211.137 212.477C209.563 212.477 208.477 211.461 208.414 209.59L214.75 209.59L214.75 209.023C214.75 205.773 212.816 204.66 211 204.66C208.637 204.66 207.066 206.523 207.066 209.203C207.066 211.887 208.613 213.684 211.137 213.684ZM208.414 208.434C208.504 207.074 209.465 205.863 211 205.863C212.453 205.863 213.387 206.953 213.387 208.434L208.414 208.434ZM220.592 204.773L218.728 204.773L218.728 202.684L217.385 202.684L217.385 204.773L216.068 204.773L216.068 205.91L217.385 205.91L217.385 211.363C217.385 212.887 218.615 213.613 219.752 213.613C220.252 213.613 220.568 213.523 220.752 213.453L220.478 212.25C220.365 212.273 220.182 212.316 219.885 212.316C219.295 212.316 218.728 212.137 218.728 211L218.728 205.91L220.592 205.91L220.592 204.773ZM233.297 206.727C232.875 205.488 231.933 204.66 230.203 204.66C228.363 204.66 227 205.703 227 207.184C227 208.387 227.715 209.191 229.32 209.566L230.773 209.91C231.652 210.113 232.07 210.535 232.07 211.137C232.07 211.887 231.273 212.5 230.023 212.5C228.925 212.5 228.238 212.027 228 211.09L226.726 211.41C227.039 212.891 228.261 213.684 230.047 213.684C232.074 213.684 233.453 212.574 233.453 211.066C233.453 209.852 232.695 209.086 231.136 208.703L229.84 208.387C228.808 208.129 228.34 207.785 228.34 207.113C228.34 206.363 229.136 205.816 230.203 205.816C231.375 205.816 231.859 206.465 232.09 207.066L233.297 206.727ZM239.137 213.684C240.91 213.684 242.203 212.797 242.613 211.477L241.316 211.113C240.977 212.023 240.188 212.477 239.137 212.477C237.563 212.477 236.477 211.461 236.414 209.59L242.75 209.59L242.75 209.023C242.75 205.773 240.816 204.66 239 204.66C236.637 204.66 235.066 206.523 235.066 209.203C235.066 211.887 236.613 213.684 239.137 213.684ZM236.414 208.434C236.504 207.074 237.465 205.863 239 205.863C240.453 205.863 241.387 206.953 241.387 208.434L236.414 208.434ZM244.795 213.5L246.135 213.5L246.135 207.977C246.135 206.797 247.068 205.934 248.342 205.934C248.697 205.934 249.068 206 249.158 206.023L249.158 204.66C249.006 204.648 248.654 204.637 248.455 204.637C247.408 204.637 246.502 205.227 246.181 206.09L246.092 206.09L246.092 204.773L244.795 204.773L244.795 213.5ZM258.159 204.773L256.706 204.773L254.295 211.727L254.206 211.727L251.795 204.773L250.342 204.773L253.569 213.5L254.932 213.5L258.159 204.773ZM259.931 213.5L261.271 213.5L261.271 204.773L259.931 204.773L259.931 213.5ZM260.615 203.316C261.138 203.316 261.568 202.91 261.568 202.41C261.568 201.91 261.138 201.5 260.615 201.5C260.091 201.5 259.658 201.91 259.658 202.41C259.658 202.91 260.091 203.316 260.615 203.316ZM267.273 213.684C269.203 213.684 270.477 212.5 270.703 210.953L269.363 210.953C269.113 211.91 268.316 212.477 267.273 212.477C265.684 212.477 264.66 211.16 264.66 209.137C264.66 207.16 265.703 205.863 267.273 205.863C268.453 205.863 269.16 206.59 269.363 207.387L270.703 207.387C270.477 205.75 269.09 204.66 267.25 204.66C264.887 204.66 263.316 206.523 263.316 209.184C263.316 211.797 264.816 213.684 267.273 213.684ZM276.319 213.684C278.092 213.684 279.385 212.797 279.795 211.477L278.498 211.113C278.158 212.023 277.369 212.477 276.319 212.477C274.744 212.477 273.658 211.461 273.596 209.59L279.932 209.59L279.932 209.023C279.932 205.773 277.998 204.66 276.182 204.66C273.819 204.66 272.248 206.523 272.248 209.203C272.248 211.887 273.795 213.684 276.319 213.684ZM273.596 208.434C273.686 207.074 274.647 205.863 276.182 205.863C277.635 205.863 278.569 206.953 278.569 208.434L273.596 208.434ZM288.16 206.727C287.738 205.488 286.797 204.66 285.066 204.66C283.227 204.66 281.863 205.703 281.863 207.184C281.863 208.387 282.578 209.191 284.184 209.566L285.637 209.91C286.516 210.113 286.934 210.535 286.934 211.137C286.934 211.887 286.137 212.5 284.887 212.5C283.789 212.5 283.102 212.027 282.863 211.09L281.59 211.41C281.902 212.891 283.125 213.684 284.91 213.684C286.938 213.684 288.316 212.574 288.316 211.066C288.316 209.852 287.559 209.086 286 208.703L284.703 208.387C283.672 208.129 283.203 207.785 283.203 207.113C283.203 206.363 284 205.816 285.066 205.816C286.238 205.816 286.723 206.465 286.953 207.066L288.16 206.727ZM296.18 201.863L294.84 201.863L294.84 213.5L296.18 213.5L296.18 201.863ZM298.636 213.5L299.976 213.5L299.976 204.773L298.636 204.773L298.636 213.5ZM299.319 203.316C299.843 203.316 300.272 202.91 300.272 202.41C300.272 201.91 299.843 201.5 299.319 201.5C298.796 201.5 298.362 201.91 298.362 202.41C298.362 202.91 298.796 203.316 299.319 203.316ZM302.431 213.5L303.771 213.5L303.771 208.047C303.771 206.766 304.705 205.863 305.751 205.863C306.767 205.863 307.478 206.527 307.478 207.523L307.478 213.5L308.841 213.5L308.841 207.816C308.841 206.691 309.544 205.863 310.771 205.863C311.728 205.863 312.544 206.371 312.544 207.66L312.544 213.5L313.888 213.5L313.888 207.66C313.888 205.609 312.783 204.66 311.228 204.66C309.978 204.66 309.064 205.234 308.615 206.137L308.521 206.137C308.091 205.203 307.33 204.66 306.181 204.66C305.044 204.66 304.205 205.203 303.841 206.137L303.728 206.137L303.728 204.773L302.431 204.773L302.431 213.5ZM316.34 213.5L317.68 213.5L317.68 204.773L316.34 204.773L316.34 213.5ZM317.024 203.316C317.547 203.316 317.977 202.91 317.977 202.41C317.977 201.91 317.547 201.5 317.024 201.5C316.5 201.5 316.067 201.91 316.067 202.41C316.067 202.91 316.5 203.316 317.024 203.316ZM323.933 204.773L322.069 204.773L322.069 202.684L320.725 202.684L320.725 204.773L319.409 204.773L319.409 205.91L320.725 205.91L320.725 211.363C320.725 212.887 321.956 213.613 323.093 213.613C323.593 213.613 323.909 213.523 324.093 213.453L323.819 212.25C323.706 212.273 323.522 212.316 323.225 212.316C322.636 212.316 322.069 212.137 322.069 211L322.069 205.91L323.933 205.91L323.933 204.773ZM329.523 213.684C331.297 213.684 332.589 212.797 333 211.477L331.703 211.113C331.363 212.023 330.574 212.477 329.523 212.477C327.949 212.477 326.863 211.461 326.8 209.59L333.136 209.59L333.136 209.023C333.136 205.773 331.203 204.66 329.386 204.66C327.023 204.66 325.453 206.523 325.453 209.203C325.453 211.887 327 213.684 329.523 213.684ZM326.8 208.434C326.89 207.074 327.851 205.863 329.386 205.863C330.839 205.863 331.773 206.953 331.773 208.434L326.8 208.434ZM338.478 213.684C340.158 213.684 340.728 212.637 341.021 212.16L341.181 212.16L341.181 213.5L342.478 213.5L342.478 201.863L341.138 201.863L341.138 206.16L341.021 206.16C340.728 205.703 340.205 204.66 338.501 204.66C336.294 204.66 334.771 206.41 334.771 209.16C334.771 211.934 336.294 213.684 338.478 213.684ZM338.658 212.477C336.978 212.477 336.115 211 336.115 209.137C336.115 207.297 336.955 205.863 338.658 205.863C340.294 205.863 341.158 207.184 341.158 209.137C341.158 211.113 340.271 212.477 338.658 212.477ZM346.089 213.59C346.652 213.59 347.113 213.129 347.113 212.566C347.113 212.004 346.652 211.547 346.089 211.547C345.527 211.547 345.07 212.004 345.07 212.566C345.07 213.129 345.527 213.59 346.089 213.59ZM349.499 213.5L356.842 213.5L356.842 212.25L351.432 212.25L351.432 212.16L354.045 209.363C356.045 207.223 356.635 206.223 356.635 204.934C356.635 203.137 355.182 201.703 353.135 201.703C351.096 201.703 349.545 203.09 349.545 205.137L350.885 205.137C350.885 203.812 351.745 202.934 353.092 202.934C354.354 202.934 355.319 203.703 355.319 204.934C355.319 206.004 354.686 206.801 353.342 208.273L349.499 212.477L349.499 213.5ZM362.977 213.66C365.544 213.66 367.024 211.484 367.024 207.684C367.024 203.91 365.524 201.703 362.977 201.703C360.43 201.703 358.93 203.91 358.93 207.684C358.93 211.484 360.411 213.66 362.977 213.66ZM362.977 212.41C361.286 212.41 360.294 210.711 360.294 207.684C360.294 204.66 361.294 202.934 362.977 202.934C364.661 202.934 365.661 204.66 365.661 207.684C365.661 210.711 364.669 212.41 362.977 212.41ZM369.18 213.5L376.524 213.5L376.524 212.25L371.114 212.25L371.114 212.16L373.727 209.363C375.727 207.223 376.317 206.223 376.317 204.934C376.317 203.137 374.864 201.703 372.817 201.703C370.778 201.703 369.227 203.09 369.227 205.137L370.567 205.137C370.567 203.812 371.426 202.934 372.774 202.934C374.036 202.934 375.001 203.703 375.001 204.934C375.001 206.004 374.368 206.801 373.024 208.273L369.18 212.477L369.18 213.5ZM378.343 211.113L383.819 211.113L383.819 213.5L385.159 213.5L385.159 211.113L386.749 211.113L386.749 209.863L385.159 209.863L385.159 201.863L383.456 201.863L378.343 209.953L378.343 211.113ZM383.819 209.863L379.862 209.863L379.862 209.773L383.725 203.66L383.819 203.66L383.819 209.863Z" fill="#FFFFFF" fill-opacity="0.700000" fill-rule="evenodd"/>
	<path id="Download our app" d="M997.03 18.56L997.03 4.36L1002.07 4.36C1003.6 4.36 1004.88 4.68 1005.91 5.32C1006.94 5.94667 1007.7 6.8 1008.21 7.88C1008.73 8.94667 1008.99 10.1333 1008.99 11.44C1008.99 12.88 1008.7 14.1333 1008.13 15.2C1007.57 16.2667 1006.77 17.0933 1005.73 17.68C1004.69 18.2667 1003.47 18.56 1002.07 18.56L997.03 18.56ZM1006.71 11.44C1006.71 10.44 1006.52 9.56 1006.15 8.8C1005.79 8.02667 1005.26 7.42667 1004.57 7C1003.89 6.56 1003.06 6.34 1002.07 6.34L999.27 6.34L999.27 16.58L1002.07 16.58C1003.07 16.58 1003.91 16.3533 1004.59 15.9C1005.28 15.4467 1005.81 14.8333 1006.17 14.06C1006.53 13.2867 1006.71 12.4133 1006.71 11.44ZM1015.77 18.76C1014.94 18.76 1014.2 18.62 1013.55 18.34C1012.89 18.0467 1012.33 17.6467 1011.85 17.14C1011.38 16.6333 1011.02 16.06 1010.77 15.42C1010.51 14.7667 1010.39 14.0733 1010.39 13.34C1010.39 12.6067 1010.51 11.9133 1010.77 11.26C1011.02 10.6067 1011.38 10.0333 1011.85 9.54C1012.33 9.03333 1012.89 8.64 1013.55 8.36C1014.21 8.06667 1014.95 7.92 1015.77 7.92C1016.58 7.92 1017.31 8.06667 1017.97 8.36C1018.63 8.64 1019.2 9.03333 1019.67 9.54C1020.15 10.0333 1020.51 10.6067 1020.77 11.26C1021.02 11.9133 1021.15 12.6067 1021.15 13.34C1021.15 14.0733 1021.02 14.7667 1020.77 15.42C1020.51 16.06 1020.15 16.6333 1019.67 17.14C1019.2 17.6467 1018.63 18.0467 1017.97 18.34C1017.31 18.62 1016.58 18.76 1015.77 18.76ZM1012.65 13.36C1012.65 14.0267 1012.79 14.6267 1013.07 15.16C1013.35 15.6933 1013.72 16.1133 1014.19 16.42C1014.65 16.7267 1015.18 16.88 1015.77 16.88C1016.34 16.88 1016.86 16.7267 1017.33 16.42C1017.81 16.1 1018.19 15.6733 1018.47 15.14C1018.75 14.5933 1018.89 13.9933 1018.89 13.34C1018.89 12.6733 1018.75 12.0733 1018.47 11.54C1018.19 11.0067 1017.81 10.5867 1017.33 10.28C1016.86 9.96 1016.34 9.8 1015.77 9.8C1015.18 9.8 1014.65 9.96 1014.19 10.28C1013.72 10.6 1013.35 11.0267 1013.07 11.56C1012.79 12.08 1012.65 12.68 1012.65 13.36ZM1035.79 8.1L1037.89 8.1L1033.49 18.56L1031.61 18.56L1029.73 13.84L1027.85 18.56L1025.97 18.56L1021.55 8.1L1023.65 8.1L1027.01 16.42L1028.49 12.56L1026.69 8.12L1028.55 8.12L1029.73 11.38L1030.89 8.12L1032.75 8.12L1030.97 12.56L1032.45 16.42L1035.79 8.1ZM1048.73 18.56L1046.53 18.56L1046.53 12.7C1046.53 11.7267 1046.37 11.0133 1046.05 10.56C1045.74 10.1067 1045.28 9.88 1044.67 9.88C1044.24 9.88 1043.81 9.98667 1043.39 10.2C1042.97 10.4133 1042.6 10.7067 1042.27 11.08C1041.93 11.44 1041.69 11.86 1041.55 12.34L1041.55 18.56L1039.35 18.56L1039.35 8.1L1041.35 8.1L1041.35 10.2C1041.61 9.73333 1041.96 9.33333 1042.39 9C1042.83 8.65333 1043.32 8.38667 1043.87 8.2C1044.41 8.01333 1044.99 7.92 1045.61 7.92C1046.23 7.92 1046.75 8.03333 1047.15 8.26C1047.56 8.48667 1047.88 8.8 1048.11 9.2C1048.35 9.58667 1048.51 10.04 1048.59 10.56C1048.68 11.0667 1048.73 11.6067 1048.73 12.18L1048.73 18.56ZM1051.3 3.96L1053.5 3.96L1053.5 15.54C1053.5 16.0733 1053.58 16.4133 1053.74 16.56C1053.9 16.7067 1054.1 16.78 1054.34 16.78C1054.61 16.78 1054.85 16.7533 1055.08 16.7C1055.32 16.6467 1055.53 16.58 1055.7 16.5L1056.02 18.24C1055.7 18.3733 1055.32 18.4867 1054.88 18.58C1054.44 18.6733 1054.05 18.72 1053.7 18.72C1052.95 18.72 1052.37 18.5133 1051.94 18.1C1051.51 17.6733 1051.3 17.0867 1051.3 16.34L1051.3 3.96ZM1062 18.76C1061.17 18.76 1060.43 18.62 1059.78 18.34C1059.12 18.0467 1058.56 17.6467 1058.08 17.14C1057.61 16.6333 1057.25 16.06 1057 15.42C1056.74 14.7667 1056.62 14.0733 1056.62 13.34C1056.62 12.6067 1056.74 11.9133 1057 11.26C1057.25 10.6067 1057.61 10.0333 1058.08 9.54C1058.56 9.03333 1059.12 8.64 1059.78 8.36C1060.44 8.06667 1061.18 7.92 1062 7.92C1062.81 7.92 1063.54 8.06667 1064.2 8.36C1064.86 8.64 1065.43 9.03333 1065.9 9.54C1066.38 10.0333 1066.74 10.6067 1067 11.26C1067.25 11.9133 1067.38 12.6067 1067.38 13.34C1067.38 14.0733 1067.25 14.7667 1067 15.42C1066.74 16.06 1066.38 16.6333 1065.9 17.14C1065.43 17.6467 1064.86 18.0467 1064.2 18.34C1063.54 18.62 1062.81 18.76 1062 18.76ZM1058.88 13.36C1058.88 14.0267 1059.02 14.6267 1059.3 15.16C1059.58 15.6933 1059.95 16.1133 1060.42 16.42C1060.88 16.7267 1061.41 16.88 1062 16.88C1062.57 16.88 1063.09 16.7267 1063.56 16.42C1064.04 16.1 1064.42 15.6733 1064.7 15.14C1064.98 14.5933 1065.12 13.9933 1065.12 13.34C1065.12 12.6733 1064.98 12.0733 1064.7 11.54C1064.42 11.0067 1064.04 10.5867 1063.56 10.28C1063.09 9.96 1062.57 9.8 1062 9.8C1061.41 9.8 1060.88 9.96 1060.42 10.28C1059.95 10.6 1059.58 11.0267 1059.3 11.56C1059.02 12.08 1058.88 12.68 1058.88 13.36ZM1068.57 15.5C1068.57 14.8333 1068.75 14.2533 1069.13 13.76C1069.51 13.2533 1070.04 12.8667 1070.71 12.6C1071.37 12.32 1072.15 12.18 1073.03 12.18C1073.49 12.18 1073.97 12.2133 1074.45 12.28C1074.94 12.3467 1075.37 12.4533 1075.75 12.6L1075.75 11.94C1075.75 11.2067 1075.53 10.6333 1075.09 10.22C1074.65 9.80667 1074.01 9.6 1073.19 9.6C1072.6 9.6 1072.05 9.70667 1071.53 9.92C1071.01 10.12 1070.45 10.4067 1069.87 10.78L1069.13 9.3C1069.82 8.83333 1070.51 8.48667 1071.21 8.26C1071.91 8.03333 1072.65 7.92 1073.43 7.92C1074.83 7.92 1075.93 8.29333 1076.73 9.04C1077.54 9.77333 1077.95 10.82 1077.95 12.18L1077.95 16.08C1077.95 16.3333 1077.99 16.5133 1078.07 16.62C1078.16 16.7267 1078.31 16.7867 1078.53 16.8L1078.53 18.56C1078.33 18.6 1078.15 18.6267 1077.99 18.64C1077.83 18.6533 1077.69 18.66 1077.59 18.66C1077.12 18.66 1076.77 18.5467 1076.53 18.32C1076.29 18.0933 1076.15 17.8267 1076.11 17.52L1076.05 16.92C1075.59 17.5067 1075.01 17.96 1074.31 18.28C1073.6 18.6 1072.89 18.76 1072.17 18.76C1071.47 18.76 1070.85 18.62 1070.31 18.34C1069.76 18.0467 1069.33 17.6533 1069.03 17.16C1068.72 16.6667 1068.57 16.1133 1068.57 15.5ZM1075.23 16.14C1075.39 15.9667 1075.51 15.7933 1075.61 15.62C1075.7 15.4467 1075.75 15.2933 1075.75 15.16L1075.75 13.96C1075.37 13.8133 1074.98 13.7067 1074.57 13.64C1074.15 13.56 1073.75 13.52 1073.35 13.52C1072.55 13.52 1071.89 13.68 1071.39 14C1070.89 14.32 1070.65 14.76 1070.65 15.32C1070.65 15.6267 1070.73 15.92 1070.89 16.2C1071.06 16.48 1071.3 16.7067 1071.61 16.88C1071.93 17.0533 1072.32 17.14 1072.79 17.14C1073.27 17.14 1073.73 17.0467 1074.17 16.86C1074.61 16.6733 1074.96 16.4333 1075.23 16.14ZM1079.96 13.34C1079.96 12.34 1080.16 11.4333 1080.56 10.62C1080.97 9.79333 1081.53 9.14 1082.24 8.66C1082.94 8.16667 1083.76 7.92 1084.68 7.92C1085.48 7.92 1086.2 8.12667 1086.84 8.54C1087.49 8.95333 1088 9.46667 1088.36 10.08L1088.36 3.96L1090.56 3.96L1090.56 16.08C1090.56 16.3333 1090.6 16.5133 1090.7 16.62C1090.79 16.7267 1090.94 16.7867 1091.16 16.8L1091.16 18.56C1090.74 18.6267 1090.42 18.66 1090.2 18.66C1089.78 18.66 1089.43 18.54 1089.14 18.3C1088.86 18.06 1088.71 17.7733 1088.7 17.44L1088.68 16.66C1088.28 17.3267 1087.74 17.8467 1087.06 18.22C1086.38 18.58 1085.67 18.76 1084.94 18.76C1084.22 18.76 1083.55 18.62 1082.94 18.34C1082.34 18.06 1081.81 17.6667 1081.36 17.16C1080.92 16.6533 1080.57 16.0733 1080.32 15.42C1080.08 14.7667 1079.96 14.0733 1079.96 13.34ZM1088.36 14.8L1088.36 12.06C1088.21 11.6333 1087.97 11.2533 1087.64 10.92C1087.32 10.5733 1086.95 10.3 1086.54 10.1C1086.14 9.9 1085.74 9.8 1085.34 9.8C1084.87 9.8 1084.44 9.9 1084.06 10.1C1083.68 10.3 1083.36 10.5667 1083.08 10.9C1082.81 11.2333 1082.6 11.6133 1082.46 12.04C1082.31 12.4667 1082.24 12.9133 1082.24 13.38C1082.24 13.86 1082.32 14.3133 1082.48 14.74C1082.64 15.1533 1082.86 15.5267 1083.16 15.86C1083.46 16.18 1083.81 16.4333 1084.2 16.62C1084.6 16.7933 1085.03 16.88 1085.5 16.88C1085.79 16.88 1086.08 16.8267 1086.38 16.72C1086.68 16.6133 1086.97 16.4667 1087.24 16.28C1087.52 16.0933 1087.75 15.8733 1087.94 15.62C1088.14 15.3667 1088.28 15.0933 1088.36 14.8ZM1102.99 18.76C1102.17 18.76 1101.43 18.62 1100.77 18.34C1100.12 18.0467 1099.55 17.6467 1099.07 17.14C1098.61 16.6333 1098.25 16.06 1097.99 15.42C1097.74 14.7667 1097.61 14.0733 1097.61 13.34C1097.61 12.6067 1097.74 11.9133 1097.99 11.26C1098.25 10.6067 1098.61 10.0333 1099.07 9.54C1099.55 9.03333 1100.12 8.64 1100.77 8.36C1101.44 8.06667 1102.18 7.92 1102.99 7.92C1103.81 7.92 1104.54 8.06667 1105.19 8.36C1105.86 8.64 1106.43 9.03333 1106.89 9.54C1107.37 10.0333 1107.74 10.6067 1107.99 11.26C1108.25 11.9133 1108.37 12.6067 1108.37 13.34C1108.37 14.0733 1108.25 14.7667 1107.99 15.42C1107.74 16.06 1107.37 16.6333 1106.89 17.14C1106.43 17.6467 1105.86 18.0467 1105.19 18.34C1104.54 18.62 1103.81 18.76 1102.99 18.76ZM1099.87 13.36C1099.87 14.0267 1100.01 14.6267 1100.29 15.16C1100.57 15.6933 1100.95 16.1133 1101.41 16.42C1101.88 16.7267 1102.41 16.88 1102.99 16.88C1103.57 16.88 1104.09 16.7267 1104.55 16.42C1105.03 16.1 1105.41 15.6733 1105.69 15.14C1105.97 14.5933 1106.11 13.9933 1106.11 13.34C1106.11 12.6733 1105.97 12.0733 1105.69 11.54C1105.41 11.0067 1105.03 10.5867 1104.55 10.28C1104.09 9.96 1103.57 9.8 1102.99 9.8C1102.41 9.8 1101.88 9.96 1101.41 10.28C1100.95 10.6 1100.57 11.0267 1100.29 11.56C1100.01 12.08 1099.87 12.68 1099.87 13.36ZM1110.22 14.5L1110.22 8.1L1112.42 8.1L1112.42 14.06C1112.42 14.9933 1112.59 15.7 1112.92 16.18C1113.27 16.6467 1113.77 16.88 1114.42 16.88C1114.84 16.88 1115.24 16.7933 1115.62 16.62C1116.02 16.4467 1116.38 16.1933 1116.7 15.86C1117.04 15.5133 1117.3 15.1 1117.5 14.62L1117.5 8.1L1119.7 8.1L1119.7 16.08C1119.7 16.3333 1119.75 16.5133 1119.84 16.62C1119.94 16.7267 1120.09 16.7867 1120.3 16.8L1120.3 18.56C1120.08 18.6 1119.89 18.6267 1119.74 18.64C1119.6 18.6533 1119.46 18.66 1119.32 18.66C1118.92 18.66 1118.59 18.5533 1118.32 18.34C1118.06 18.1133 1117.9 17.8267 1117.86 17.48L1117.82 16.44C1117.36 17.2 1116.75 17.78 1116 18.18C1115.26 18.5667 1114.44 18.76 1113.54 18.76C1112.45 18.76 1111.62 18.4 1111.06 17.68C1110.5 16.96 1110.22 15.9 1110.22 14.5ZM1128.39 10C1127.54 10.0133 1126.78 10.2067 1126.11 10.58C1125.46 10.9533 1124.99 11.48 1124.71 12.16L1124.71 18.56L1122.51 18.56L1122.51 8.1L1124.55 8.1L1124.55 10.44C1124.91 9.72 1125.38 9.14667 1125.97 8.72C1126.56 8.28 1127.18 8.04 1127.83 8C1127.96 8 1128.07 8 1128.15 8C1128.24 8 1128.32 8.00667 1128.39 8.02L1128.39 10ZM1133.72 15.5C1133.72 14.8333 1133.91 14.2533 1134.28 13.76C1134.67 13.2533 1135.2 12.8667 1135.86 12.6C1136.53 12.32 1137.3 12.18 1138.18 12.18C1138.65 12.18 1139.12 12.2133 1139.6 12.28C1140.1 12.3467 1140.53 12.4533 1140.9 12.6L1140.9 11.94C1140.9 11.2067 1140.68 10.6333 1140.24 10.22C1139.8 9.80667 1139.17 9.6 1138.34 9.6C1137.76 9.6 1137.2 9.70667 1136.68 9.92C1136.16 10.12 1135.61 10.4067 1135.02 10.78L1134.28 9.3C1134.98 8.83333 1135.67 8.48667 1136.36 8.26C1137.07 8.03333 1137.81 7.92 1138.58 7.92C1139.98 7.92 1141.08 8.29333 1141.88 9.04C1142.7 9.77333 1143.1 10.82 1143.1 12.18L1143.1 16.08C1143.1 16.3333 1143.14 16.5133 1143.22 16.62C1143.32 16.7267 1143.47 16.7867 1143.68 16.8L1143.68 18.56C1143.48 18.6 1143.3 18.6267 1143.14 18.64C1142.98 18.6533 1142.85 18.66 1142.74 18.66C1142.28 18.66 1141.92 18.5467 1141.68 18.32C1141.44 18.0933 1141.3 17.8267 1141.26 17.52L1141.2 16.92C1140.75 17.5067 1140.17 17.96 1139.46 18.28C1138.76 18.6 1138.04 18.76 1137.32 18.76C1136.63 18.76 1136.01 18.62 1135.46 18.34C1134.92 18.0467 1134.49 17.6533 1134.18 17.16C1133.88 16.6667 1133.72 16.1133 1133.72 15.5ZM1140.38 16.14C1140.54 15.9667 1140.67 15.7933 1140.76 15.62C1140.86 15.4467 1140.9 15.2933 1140.9 15.16L1140.9 13.96C1140.53 13.8133 1140.14 13.7067 1139.72 13.64C1139.31 13.56 1138.9 13.52 1138.5 13.52C1137.7 13.52 1137.05 13.68 1136.54 14C1136.05 14.32 1135.8 14.76 1135.8 15.32C1135.8 15.6267 1135.88 15.92 1136.04 16.2C1136.22 16.48 1136.46 16.7067 1136.76 16.88C1137.08 17.0533 1137.48 17.14 1137.94 17.14C1138.42 17.14 1138.88 17.0467 1139.32 16.86C1139.76 16.6733 1140.12 16.4333 1140.38 16.14ZM1151.71 18.76C1150.87 18.76 1150.13 18.56 1149.49 18.16C1148.85 17.76 1148.35 17.24 1147.97 16.6L1147.97 22.82L1145.77 22.82L1145.77 8.1L1147.71 8.1L1147.71 9.98C1148.11 9.35333 1148.63 8.85333 1149.27 8.48C1149.91 8.10667 1150.63 7.92 1151.41 7.92C1152.13 7.92 1152.79 8.06667 1153.39 8.36C1153.99 8.64 1154.51 9.03333 1154.95 9.54C1155.39 10.0467 1155.73 10.6267 1155.97 11.28C1156.23 11.92 1156.35 12.6 1156.35 13.32C1156.35 14.32 1156.15 15.2333 1155.75 16.06C1155.37 16.8867 1154.82 17.5467 1154.11 18.04C1153.42 18.52 1152.62 18.76 1151.71 18.76ZM1150.99 16.88C1151.46 16.88 1151.88 16.78 1152.25 16.58C1152.64 16.38 1152.97 16.1133 1153.23 15.78C1153.51 15.4467 1153.73 15.0667 1153.87 14.64C1154.02 14.2133 1154.09 13.7733 1154.09 13.32C1154.09 12.84 1154.01 12.3867 1153.85 11.96C1153.69 11.5333 1153.46 11.16 1153.15 10.84C1152.86 10.52 1152.51 10.2667 1152.11 10.08C1151.73 9.89333 1151.3 9.8 1150.83 9.8C1150.55 9.8 1150.26 9.85333 1149.95 9.96C1149.65 10.0667 1149.36 10.2133 1149.09 10.4C1148.83 10.5867 1148.59 10.8067 1148.39 11.06C1148.19 11.3133 1148.05 11.58 1147.97 11.86L1147.97 14.6C1148.16 15.0267 1148.41 15.4133 1148.71 15.76C1149.02 16.0933 1149.37 16.3667 1149.77 16.58C1150.17 16.78 1150.58 16.88 1150.99 16.88ZM1164.27 18.76C1163.43 18.76 1162.69 18.56 1162.05 18.16C1161.41 17.76 1160.91 17.24 1160.53 16.6L1160.53 22.82L1158.33 22.82L1158.33 8.1L1160.27 8.1L1160.27 9.98C1160.67 9.35333 1161.19 8.85333 1161.83 8.48C1162.47 8.10667 1163.19 7.92 1163.97 7.92C1164.69 7.92 1165.35 8.06667 1165.95 8.36C1166.55 8.64 1167.07 9.03333 1167.51 9.54C1167.95 10.0467 1168.29 10.6267 1168.53 11.28C1168.79 11.92 1168.91 12.6 1168.91 13.32C1168.91 14.32 1168.71 15.2333 1168.31 16.06C1167.93 16.8867 1167.38 17.5467 1166.67 18.04C1165.98 18.52 1165.18 18.76 1164.27 18.76ZM1163.55 16.88C1164.02 16.88 1164.44 16.78 1164.81 16.58C1165.2 16.38 1165.53 16.1133 1165.79 15.78C1166.07 15.4467 1166.29 15.0667 1166.43 14.64C1166.58 14.2133 1166.65 13.7733 1166.65 13.32C1166.65 12.84 1166.57 12.3867 1166.41 11.96C1166.25 11.5333 1166.02 11.16 1165.71 10.84C1165.42 10.52 1165.07 10.2667 1164.67 10.08C1164.29 9.89333 1163.86 9.8 1163.39 9.8C1163.11 9.8 1162.82 9.85333 1162.51 9.96C1162.21 10.0667 1161.92 10.2133 1161.65 10.4C1161.39 10.5867 1161.15 10.8067 1160.95 11.06C1160.75 11.3133 1160.61 11.58 1160.53 11.86L1160.53 14.6C1160.72 15.0267 1160.97 15.4133 1161.27 15.76C1161.58 16.0933 1161.93 16.3667 1162.33 16.58C1162.73 16.78 1163.14 16.88 1163.55 16.88Z" fill="#FFFFFF" fill-opacity="1.000000" fill-rule="evenodd"/>
	<path id="P-Ticket" d="M2.65894 33.708L2.65894 8.148L13.5669 8.148C14.7909 8.148 15.9069 8.4 16.9149 8.904C17.9469 9.384 18.8349 10.044 19.5789 10.884C20.3229 11.7 20.8989 12.624 21.3069 13.656C21.7149 14.688 21.9189 15.744 21.9189 16.824C21.9189 18.288 21.5709 19.68 20.8749 21C20.2029 22.32 19.2549 23.4 18.0309 24.24C16.8309 25.056 15.4029 25.464 13.7469 25.464L8.56294 25.464L8.56294 33.708L2.65894 33.708ZM8.56294 20.316L13.3869 20.316C13.8429 20.316 14.2629 20.184 14.6469 19.92C15.0309 19.656 15.3429 19.26 15.5829 18.732C15.8229 18.204 15.9429 17.556 15.9429 16.788C15.9429 15.996 15.7989 15.348 15.5109 14.844C15.2469 14.316 14.8989 13.932 14.4669 13.692C14.0589 13.452 13.6269 13.332 13.1709 13.332L8.56294 13.332L8.56294 20.316ZM24.5846 26.4L24.5846 21.216L35.6726 21.216L35.6726 26.4L24.5846 26.4ZM57.5724 13.332L49.7964 13.332L49.7964 33.708L43.8924 33.708L43.8924 13.332L36.0804 13.332L36.0804 8.148L57.5724 8.148L57.5724 13.332ZM59.9878 33.708L59.9878 14.808L65.7478 14.808L65.7478 33.708L59.9878 33.708ZM59.9878 12.648L59.9878 7.428L65.7478 7.428L65.7478 12.648L59.9878 12.648ZM78.7269 34.068C77.1189 34.068 75.6909 33.804 74.4429 33.276C73.1949 32.748 72.1269 32.028 71.2389 31.116C70.3749 30.204 69.7149 29.16 69.2589 27.984C68.8029 26.808 68.5749 25.56 68.5749 24.24C68.5749 22.512 68.9709 20.904 69.7629 19.416C70.5789 17.928 71.7429 16.728 73.2549 15.816C74.7669 14.904 76.5909 14.448 78.7269 14.448C80.8869 14.448 82.7109 14.916 84.1989 15.852C85.7109 16.764 86.8389 17.964 87.5829 19.452L81.9669 21.144C81.6069 20.568 81.1389 20.124 80.5629 19.812C80.0109 19.5 79.3869 19.344 78.6909 19.344C77.8989 19.344 77.1789 19.548 76.5309 19.956C75.9069 20.364 75.4029 20.928 75.0189 21.648C74.6589 22.368 74.4789 23.232 74.4789 24.24C74.4789 25.224 74.6709 26.088 75.0549 26.832C75.4389 27.576 75.9429 28.164 76.5669 28.596C77.1909 29.004 77.8989 29.208 78.6909 29.208C79.1709 29.208 79.6149 29.136 80.0229 28.992C80.4549 28.824 80.8389 28.596 81.1749 28.308C81.5349 28.02 81.8109 27.696 82.0029 27.336L87.6189 29.064C87.1629 30.024 86.5029 30.888 85.6389 31.656C84.7989 32.4 83.8029 32.988 82.6509 33.42C81.4989 33.852 80.1909 34.068 78.7269 34.068ZM102.93 33.708L97.9982 26.148L95.9822 28.2L95.9822 33.708L90.2222 33.708L90.2222 7.428L95.9822 7.428L95.9822 22.62L102.39 14.808L108.474 14.808L101.67 22.944L109.05 33.708L102.93 33.708ZM118.805 34.068C117.197 34.068 115.769 33.816 114.521 33.312C113.273 32.784 112.205 32.076 111.317 31.188C110.453 30.3 109.793 29.28 109.337 28.128C108.881 26.952 108.653 25.728 108.653 24.456C108.653 22.632 109.049 20.976 109.841 19.488C110.657 17.976 111.821 16.764 113.333 15.852C114.845 14.916 116.669 14.448 118.805 14.448C120.941 14.448 122.753 14.904 124.241 15.816C125.753 16.728 126.905 17.928 127.697 19.416C128.489 20.88 128.885 22.476 128.885 24.204C128.885 24.54 128.861 24.876 128.813 25.212C128.789 25.524 128.765 25.8 128.741 26.04L114.773 26.04C114.845 26.88 115.073 27.588 115.457 28.164C115.865 28.74 116.381 29.184 117.005 29.496C117.629 29.784 118.289 29.928 118.985 29.928C119.849 29.928 120.653 29.724 121.397 29.316C122.165 28.908 122.693 28.356 122.981 27.66L127.877 29.028C127.397 30.012 126.713 30.888 125.825 31.656C124.961 32.4 123.929 32.988 122.729 33.42C121.553 33.852 120.245 34.068 118.805 34.068ZM114.629 22.512L122.837 22.512C122.741 21.72 122.513 21.036 122.153 20.46C121.793 19.86 121.313 19.404 120.713 19.092C120.113 18.756 119.453 18.588 118.733 18.588C117.989 18.588 117.317 18.756 116.717 19.092C116.141 19.404 115.673 19.86 115.313 20.46C114.953 21.036 114.725 21.72 114.629 22.512ZM143.525 32.7C142.997 32.916 142.409 33.132 141.761 33.348C141.137 33.564 140.477 33.732 139.781 33.852C139.085 33.996 138.401 34.068 137.729 34.068C136.769 34.068 135.881 33.912 135.065 33.6C134.273 33.264 133.637 32.724 133.157 31.98C132.701 31.236 132.473 30.252 132.473 29.028L132.473 19.164L130.061 19.164L130.061 14.808L132.473 14.808L132.473 8.796L138.233 8.796L138.233 14.808L142.085 14.808L142.085 19.164L138.233 19.164L138.233 27.048C138.233 27.672 138.389 28.128 138.701 28.416C139.013 28.68 139.409 28.812 139.889 28.812C140.297 28.812 140.729 28.74 141.185 28.596C141.665 28.452 142.073 28.296 142.409 28.128L143.525 32.7Z" fill="#FFFFFF" fill-opacity="1.000000" fill-rule="evenodd"/>
	<path id="P-Ticket is a digital platform to make your daily commuting better." d="M1.58643 80L3.16846 80L3.16846 75.2188L6.03369 75.2188C9.0835 75.2188 10.459 73.3643 10.459 71.0527C10.459 68.7368 9.0835 66.9087 6.00732 66.9087L1.58643 66.9087L1.58643 80ZM3.16846 73.8125L3.16846 68.3149L5.95898 68.3149C8.08594 68.3149 8.89893 69.4795 8.89893 71.0527C8.89893 72.6216 8.08594 73.8125 5.98096 73.8125L3.16846 73.8125ZM17.6157 72.7534L11.8896 72.7534L11.8896 74.1597L17.6157 74.1597L17.6157 72.7534ZM18.4355 68.3149L22.5531 68.3149L22.5531 80L24.1352 80L24.1352 68.3149L28.2528 68.3149L28.2528 66.9087L18.4355 66.9087L18.4355 68.3149ZM30.502 80L32.0094 80L32.0094 70.1826L30.502 70.1826L30.502 80ZM31.2711 68.5435C31.86 68.5435 32.3433 68.0864 32.3433 67.5239C32.3433 66.9614 31.86 66.5 31.2711 66.5C30.6822 66.5 30.1944 66.9614 30.1944 67.5239C30.1944 68.0864 30.6822 68.5435 31.2711 68.5435ZM38.7622 80.2065C40.9331 80.2065 42.3657 78.875 42.6206 77.1348L41.1132 77.1348C40.832 78.2114 39.9355 78.8486 38.7622 78.8486C36.9736 78.8486 35.8222 77.3677 35.8222 75.0913C35.8222 72.8677 36.9956 71.4087 38.7622 71.4087C40.0893 71.4087 40.8847 72.2261 41.1132 73.1226L42.6206 73.1226C42.3657 71.2812 40.8056 70.0552 38.7358 70.0552C36.0771 70.0552 34.3105 72.1514 34.3105 75.144C34.3105 78.084 35.998 80.2065 38.7622 80.2065ZM44.8202 80L46.3275 80L46.3275 76.3262L47.3822 75.3462L51.0605 80L52.9765 80L48.5204 74.375L52.6689 70.1826L50.8056 70.1826L46.5077 74.5552L46.3275 74.5552L46.3275 66.9087L44.8202 66.9087L44.8202 80ZM58.3214 80.2065C60.3165 80.2065 61.7711 79.209 62.2326 77.7236L60.7736 77.3149C60.3912 78.3389 59.5035 78.8486 58.3214 78.8486C56.5504 78.8486 55.3287 77.7061 55.2584 75.6011L62.3864 75.6011L62.3864 74.9639C62.3864 71.3076 60.2111 70.0552 58.1676 70.0552C55.5089 70.0552 53.7423 72.1514 53.7423 75.166C53.7423 78.1851 55.4826 80.2065 58.3214 80.2065ZM55.2584 74.3003C55.3595 72.771 56.4406 71.4087 58.1676 71.4087C59.8024 71.4087 60.8527 72.6348 60.8527 74.3003L55.2584 74.3003ZM68.9582 70.1826L66.862 70.1826L66.862 67.8315L65.3503 67.8315L65.3503 70.1826L63.8693 70.1826L63.8693 71.4614L65.3503 71.4614L65.3503 77.5962C65.3503 79.3101 66.7346 80.1274 68.0134 80.1274C68.5759 80.1274 68.9318 80.0264 69.1384 79.9473L68.8307 78.5938C68.7033 78.6201 68.4968 78.6685 68.1628 78.6685C67.4992 78.6685 66.862 78.4663 66.862 77.1875L66.862 71.4614L68.9582 71.4614L68.9582 70.1826ZM76.2947 80L77.802 80L77.802 70.1826L76.2947 70.1826L76.2947 80ZM77.0637 68.5435C77.6526 68.5435 78.136 68.0864 78.136 67.5239C78.136 66.9614 77.6526 66.5 77.0637 66.5C76.4748 66.5 75.987 66.9614 75.987 67.5239C75.987 68.0864 76.4748 68.5435 77.0637 68.5435ZM87.5211 72.3799C87.0465 70.9868 85.9874 70.0552 84.0406 70.0552C81.9708 70.0552 80.4371 71.2285 80.4371 72.894C80.4371 74.2476 81.2413 75.1528 83.0475 75.5747L84.6822 75.9614C85.671 76.1899 86.1412 76.6646 86.1412 77.3413C86.1412 78.1851 85.2447 78.875 83.8385 78.875C82.6036 78.875 81.8302 78.3433 81.5621 77.2886L80.1295 77.6489C80.481 79.3145 81.8565 80.2065 83.8648 80.2065C86.1456 80.2065 87.6969 78.9585 87.6969 77.2622C87.6969 75.8955 86.8443 75.0342 85.0909 74.6035L83.6319 74.2476C82.4718 73.9575 81.9444 73.5708 81.9444 72.8149C81.9444 71.9712 82.8409 71.356 84.0406 71.356C85.359 71.356 85.9039 72.0854 86.1632 72.7622L87.5211 72.3799ZM97.9277 80.2285C99.6372 80.2285 100.534 79.3101 100.841 78.6685L100.916 78.6685L100.916 80L102.428 80L102.428 73.5312C102.428 70.4111 100.05 70.0552 98.7935 70.0552C97.3125 70.0552 95.625 70.5649 94.856 72.3535L96.2886 72.8677C96.6226 72.1514 97.4092 71.3823 98.8462 71.3823C100.235 71.3823 100.916 72.1206 100.916 73.3774L100.916 73.4302C100.916 74.1597 100.178 74.0938 98.3848 74.3223C96.5654 74.5596 94.5747 74.9639 94.5747 77.2139C94.5747 79.1299 96.0601 80.2285 97.9277 80.2285ZM98.1562 78.875C96.9565 78.875 96.0864 78.3389 96.0864 77.2886C96.0864 76.1372 97.1323 75.7812 98.3101 75.6274C98.9473 75.5527 100.661 75.3726 100.916 75.0649L100.916 76.4448C100.916 77.6753 99.9448 78.875 98.1562 78.875ZM113.958 80.2065C115.848 80.2065 116.489 79.0288 116.819 78.4927L116.999 78.4927L116.999 80L118.458 80L118.458 66.9087L116.951 66.9087L116.951 71.7427L116.819 71.7427C116.489 71.2285 115.901 70.0552 113.985 70.0552C111.502 70.0552 109.788 72.0239 109.788 75.1177C109.788 78.2378 111.502 80.2065 113.958 80.2065ZM114.16 78.8486C112.271 78.8486 111.299 77.1875 111.299 75.0913C111.299 73.0215 112.244 71.4087 114.16 71.4087C116.002 71.4087 116.973 72.894 116.973 75.0913C116.973 77.3149 115.975 78.8486 114.16 78.8486ZM121.422 80L122.93 80L122.93 70.1826L121.422 70.1826L121.422 80ZM122.192 68.5435C122.78 68.5435 123.264 68.0864 123.264 67.5239C123.264 66.9614 122.78 66.5 122.192 66.5C121.603 66.5 121.115 66.9614 121.115 67.5239C121.115 68.0864 121.603 68.5435 122.192 68.5435ZM129.656 83.8848C132.007 83.8848 133.901 82.8125 133.901 80.2812L133.901 70.1826L132.442 70.1826L132.442 71.7427L132.289 71.7427C131.959 71.2285 131.344 70.0552 129.428 70.0552C126.945 70.0552 125.231 72.0239 125.231 75.0386C125.231 78.106 127.024 79.8462 129.401 79.8462C131.317 79.8462 131.933 78.7212 132.262 78.1851L132.394 78.1851L132.394 80.1802C132.394 81.8149 131.243 82.5576 129.656 82.5576C127.872 82.5576 127.248 81.6172 126.844 81.0723L125.644 81.916C126.255 82.9487 127.463 83.8848 129.656 83.8848ZM129.604 78.4927C127.714 78.4927 126.743 77.0601 126.743 75.0122C126.743 73.0215 127.688 71.4087 129.604 71.4087C131.445 71.4087 132.416 72.894 132.416 75.0122C132.416 77.1875 131.418 78.4927 129.604 78.4927ZM136.661 80L138.168 80L138.168 70.1826L136.661 70.1826L136.661 80ZM137.43 68.5435C138.019 68.5435 138.502 68.0864 138.502 67.5239C138.502 66.9614 138.019 66.5 137.43 66.5C136.841 66.5 136.354 66.9614 136.354 67.5239C136.354 68.0864 136.841 68.5435 137.43 68.5435ZM145.202 70.1826L143.106 70.1826L143.106 67.8315L141.595 67.8315L141.595 70.1826L140.114 70.1826L140.114 71.4614L141.595 71.4614L141.595 77.5962C141.595 79.3101 142.979 80.1274 144.258 80.1274C144.82 80.1274 145.176 80.0264 145.383 79.9473L145.075 78.5938C144.948 78.6201 144.741 78.6685 144.407 78.6685C143.744 78.6685 143.106 78.4663 143.106 77.1875L143.106 71.4614L145.202 71.4614L145.202 70.1826ZM150.368 80.2285C152.078 80.2285 152.974 79.3101 153.282 78.6685L153.356 78.6685L153.356 80L154.868 80L154.868 73.5312C154.868 70.4111 152.491 70.0552 151.234 70.0552C149.753 70.0552 148.065 70.5649 147.296 72.3535L148.729 72.8677C149.063 72.1514 149.85 71.3823 151.287 71.3823C152.675 71.3823 153.356 72.1206 153.356 73.3774L153.356 73.4302C153.356 74.1597 152.618 74.0938 150.825 74.3223C149.006 74.5596 147.015 74.9639 147.015 77.2139C147.015 79.1299 148.5 80.2285 150.368 80.2285ZM150.597 78.875C149.397 78.875 148.527 78.3389 148.527 77.2886C148.527 76.1372 149.573 75.7812 150.75 75.6274C151.388 75.5527 153.101 75.3726 153.356 75.0649L153.356 76.4448C153.356 77.6753 152.385 78.875 150.597 78.875ZM159.134 66.9087L157.627 66.9087L157.627 80L159.134 80L159.134 66.9087ZM166.959 83.6826L168.467 83.6826L168.467 78.4927L168.599 78.4927C168.928 79.0288 169.57 80.2065 171.459 80.2065C173.916 80.2065 175.63 78.2378 175.63 75.1177C175.63 72.0239 173.916 70.0552 171.433 70.0552C169.517 70.0552 168.928 71.2285 168.599 71.7427L168.418 71.7427L168.418 70.1826L166.959 70.1826L166.959 83.6826ZM168.445 75.0913C168.445 72.894 169.416 71.4087 171.257 71.4087C173.173 71.4087 174.118 73.0215 174.118 75.0913C174.118 77.1875 173.147 78.8486 171.257 78.8486C169.442 78.8486 168.445 77.3149 168.445 75.0913ZM179.436 66.9087L177.928 66.9087L177.928 80L179.436 80L179.436 66.9087ZM185.09 80.2285C186.799 80.2285 187.696 79.3101 188.003 78.6685L188.078 78.6685L188.078 80L189.59 80L189.59 73.5312C189.59 70.4111 187.212 70.0552 185.955 70.0552C184.474 70.0552 182.787 70.5649 182.018 72.3535L183.451 72.8677C183.784 72.1514 184.571 71.3823 186.008 71.3823C187.397 71.3823 188.078 72.1206 188.078 73.3774L188.078 73.4302C188.078 74.1597 187.34 74.0938 185.547 74.3223C183.727 74.5596 181.737 74.9639 181.737 77.2139C181.737 79.1299 183.222 80.2285 185.09 80.2285ZM185.318 78.875C184.118 78.875 183.248 78.3389 183.248 77.2886C183.248 76.1372 184.294 75.7812 185.472 75.6274C186.109 75.5527 187.823 75.3726 188.078 75.0649L188.078 76.4448C188.078 77.6753 187.107 78.875 185.318 78.875ZM196.62 70.1826L194.524 70.1826L194.524 67.8315L193.012 67.8315L193.012 70.1826L191.531 70.1826L191.531 71.4614L193.012 71.4614L193.012 77.5962C193.012 79.3101 194.396 80.1274 195.675 80.1274C196.238 80.1274 196.594 80.0264 196.8 79.9473L196.493 78.5938C196.365 78.6201 196.159 78.6685 195.825 78.6685C195.161 78.6685 194.524 78.4663 194.524 77.1875L194.524 71.4614L196.62 71.4614L196.62 70.1826ZM203.267 70.1826L201.069 70.1826L201.069 69.1851C201.069 68.2139 201.478 67.6997 202.476 67.6997C202.911 67.6997 203.166 67.8052 203.319 67.8535L203.754 66.5527C203.522 66.4473 203.064 66.2935 202.322 66.2935C200.916 66.2935 199.558 67.1372 199.558 68.8247L199.558 70.1826L197.976 70.1826L197.976 71.4614L199.558 71.4614L199.558 80L201.069 80L201.069 71.4614L203.267 71.4614L203.267 70.1826ZM208.97 80.2065C211.628 80.2065 213.417 78.1851 213.417 75.144C213.417 72.0723 211.628 70.0552 208.97 70.0552C206.311 70.0552 204.518 72.0723 204.518 75.144C204.518 78.1851 206.311 80.2065 208.97 80.2065ZM208.97 78.8486C206.948 78.8486 206.03 77.1128 206.03 75.144C206.03 73.1753 206.948 71.4087 208.97 71.4087C210.987 71.4087 211.909 73.1753 211.909 75.144C211.909 77.1128 210.987 78.8486 208.97 78.8486ZM215.718 80L217.225 80L217.225 73.7861C217.225 72.459 218.276 71.4878 219.708 71.4878C220.108 71.4878 220.526 71.5625 220.627 71.5889L220.627 70.0552C220.455 70.042 220.06 70.0288 219.836 70.0288C218.658 70.0288 217.638 70.6924 217.278 71.6636L217.177 71.6636L217.177 70.1826L215.718 70.1826L215.718 80ZM222.417 80L223.924 80L223.924 73.8652C223.924 72.4238 224.974 71.4087 226.152 71.4087C227.295 71.4087 228.095 72.1558 228.095 73.2764L228.095 80L229.628 80L229.628 73.606C229.628 72.3403 230.419 71.4087 231.799 71.4087C232.876 71.4087 233.794 71.98 233.794 73.4302L233.794 80L235.306 80L235.306 73.4302C235.306 71.123 234.062 70.0552 232.313 70.0552C230.907 70.0552 229.879 70.7012 229.373 71.7163L229.268 71.7163C228.784 70.666 227.928 70.0552 226.636 70.0552C225.357 70.0552 224.412 70.666 224.003 71.7163L223.876 71.7163L223.876 70.1826L222.417 70.1826L222.417 80ZM247.399 70.1826L245.302 70.1826L245.302 67.8315L243.791 67.8315L243.791 70.1826L242.31 70.1826L242.31 71.4614L243.791 71.4614L243.791 77.5962C243.791 79.3101 245.175 80.1274 246.454 80.1274C247.016 80.1274 247.372 80.0264 247.579 79.9473L247.271 78.5938C247.144 78.6201 246.937 78.6685 246.603 78.6685C245.94 78.6685 245.302 78.4663 245.302 77.1875L245.302 71.4614L247.399 71.4614L247.399 70.1826ZM253.56 80.2065C256.219 80.2065 258.008 78.1851 258.008 75.144C258.008 72.0723 256.219 70.0552 253.56 70.0552C250.902 70.0552 249.109 72.0723 249.109 75.144C249.109 78.1851 250.902 80.2065 253.56 80.2065ZM253.56 78.8486C251.539 78.8486 250.62 77.1128 250.62 75.144C250.62 73.1753 251.539 71.4087 253.56 71.4087C255.578 71.4087 256.5 73.1753 256.5 75.144C256.5 77.1128 255.578 78.8486 253.56 78.8486ZM265.371 80L266.879 80L266.879 73.8652C266.879 72.4238 267.929 71.4087 269.107 71.4087C270.249 71.4087 271.049 72.1558 271.049 73.2764L271.049 80L272.583 80L272.583 73.606C272.583 72.3403 273.374 71.4087 274.754 71.4087C275.83 71.4087 276.749 71.98 276.749 73.4302L276.749 80L278.26 80L278.26 73.4302C278.26 71.123 277.017 70.0552 275.268 70.0552C273.862 70.0552 272.833 70.7012 272.328 71.7163L272.222 71.7163C271.739 70.666 270.882 70.0552 269.59 70.0552C268.311 70.0552 267.366 70.666 266.958 71.7163L266.83 71.7163L266.83 70.1826L265.371 70.1826L265.371 80ZM283.911 80.2285C285.62 80.2285 286.517 79.3101 286.824 78.6685L286.899 78.6685L286.899 80L288.411 80L288.411 73.5312C288.411 70.4111 286.033 70.0552 284.776 70.0552C283.295 70.0552 281.608 70.5649 280.839 72.3535L282.272 72.8677C282.605 72.1514 283.392 71.3823 284.829 71.3823C286.218 71.3823 286.899 72.1206 286.899 73.3774L286.899 73.4302C286.899 74.1597 286.161 74.0938 284.368 74.3223C282.548 74.5596 280.558 74.9639 280.558 77.2139C280.558 79.1299 282.043 80.2285 283.911 80.2285ZM284.139 78.875C282.939 78.875 282.069 78.3389 282.069 77.2886C282.069 76.1372 283.115 75.7812 284.293 75.6274C284.93 75.5527 286.644 75.3726 286.899 75.0649L286.899 76.4448C286.899 77.6753 285.928 78.875 284.139 78.875ZM291.17 80L292.677 80L292.677 76.3262L293.732 75.3462L297.41 80L299.326 80L294.87 74.375L299.018 70.1826L297.155 70.1826L292.857 74.5552L292.677 74.5552L292.677 66.9087L291.17 66.9087L291.17 80ZM304.671 80.2065C306.666 80.2065 308.121 79.209 308.582 77.7236L307.123 77.3149C306.741 78.3389 305.853 78.8486 304.671 78.8486C302.9 78.8486 301.678 77.7061 301.608 75.6011L308.736 75.6011L308.736 74.9639C308.736 71.3076 306.56 70.0552 304.517 70.0552C301.858 70.0552 300.092 72.1514 300.092 75.166C300.092 78.1851 301.832 80.2065 304.671 80.2065ZM301.608 74.3003C301.709 72.771 302.79 71.4087 304.517 71.4087C306.152 71.4087 307.202 72.6348 307.202 74.3003L301.608 74.3003ZM317.07 83.6826C318.432 83.6826 319.39 82.9575 319.961 81.4326L324.127 70.1826L322.493 70.1826L319.781 78.0049L319.68 78.0049L316.969 70.1826L315.334 70.1826L318.964 80.0527L318.683 80.8174C318.133 82.3159 317.457 82.4565 316.353 82.1753L315.971 83.5024C316.125 83.5815 316.56 83.6826 317.07 83.6826ZM329.754 80.2065C332.412 80.2065 334.201 78.1851 334.201 75.144C334.201 72.0723 332.412 70.0552 329.754 70.0552C327.095 70.0552 325.302 72.0723 325.302 75.144C325.302 78.1851 327.095 80.2065 329.754 80.2065ZM329.754 78.8486C327.732 78.8486 326.814 77.1128 326.814 75.144C326.814 73.1753 327.732 71.4087 329.754 71.4087C331.771 71.4087 332.694 73.1753 332.694 75.144C332.694 77.1128 331.771 78.8486 329.754 78.8486ZM342.69 75.9878C342.69 77.8247 341.283 78.6685 340.158 78.6685C338.906 78.6685 338.009 77.75 338.009 76.3174L338.009 70.1826L336.502 70.1826L336.502 76.4185C336.502 78.9277 337.834 80.1274 339.675 80.1274C341.156 80.1274 342.127 79.3364 342.588 78.3389L342.69 78.3389L342.69 80L344.197 80L344.197 70.1826L342.69 70.1826L342.69 75.9878ZM346.959 80L348.467 80L348.467 73.7861C348.467 72.459 349.517 71.4878 350.95 71.4878C351.35 71.4878 351.767 71.5625 351.868 71.5889L351.868 70.0552C351.697 70.042 351.301 70.0288 351.077 70.0288C349.899 70.0288 348.88 70.6924 348.519 71.6636L348.418 71.6636L348.418 70.1826L346.959 70.1826L346.959 80ZM5.08887 110.207C6.97852 110.207 7.62012 109.029 7.94971 108.493L8.12988 108.493L8.12988 110L9.58887 110L9.58887 96.9087L8.08154 96.9087L8.08154 101.743L7.94971 101.743C7.62012 101.229 7.03125 100.055 5.11523 100.055C2.63232 100.055 0.918457 102.024 0.918457 105.118C0.918457 108.238 2.63232 110.207 5.08887 110.207ZM5.29102 108.849C3.40137 108.849 2.43018 107.188 2.43018 105.091C2.43018 103.021 3.375 101.409 5.29102 101.409C7.13232 101.409 8.10352 102.894 8.10352 105.091C8.10352 107.315 7.10596 108.849 5.29102 108.849ZM15.4448 110.229C17.1543 110.229 18.0507 109.31 18.3584 108.668L18.4331 108.668L18.4331 110L19.9448 110L19.9448 103.531C19.9448 100.411 17.5673 100.055 16.3105 100.055C14.8295 100.055 13.142 100.565 12.373 102.354L13.8056 102.868C14.1396 102.151 14.9262 101.382 16.3632 101.382C17.7519 101.382 18.4331 102.121 18.4331 103.377L18.4331 103.43C18.4331 104.16 17.6948 104.094 15.9018 104.322C14.0825 104.56 12.0918 104.964 12.0918 107.214C12.0918 109.13 13.5771 110.229 15.4448 110.229ZM15.6733 108.875C14.4736 108.875 13.6035 108.339 13.6035 107.289C13.6035 106.137 14.6494 105.781 15.8271 105.627C16.4643 105.553 18.1782 105.373 18.4331 105.065L18.4331 106.445C18.4331 107.675 17.4619 108.875 15.6733 108.875ZM22.7037 110L24.2111 110L24.2111 100.183L22.7037 100.183L22.7037 110ZM23.4728 98.5435C24.0617 98.5435 24.5451 98.0864 24.5451 97.5239C24.5451 96.9614 24.0617 96.5 23.4728 96.5C22.8839 96.5 22.3961 96.9614 22.3961 97.5239C22.3961 98.0864 22.8839 98.5435 23.4728 98.5435ZM28.481 96.9087L26.9736 96.9087L26.9736 110L28.481 110L28.481 96.9087ZM32.2147 113.683C33.577 113.683 34.535 112.958 35.1063 111.433L39.2723 100.183L37.6376 100.183L34.9261 108.005L34.8251 108.005L32.1136 100.183L30.4789 100.183L34.1088 110.053L33.8275 110.817C33.2782 112.316 32.6014 112.457 31.4984 112.175L31.1161 113.502C31.2699 113.582 31.7049 113.683 32.2147 113.683ZM50.319 110.207C52.4899 110.207 53.9225 108.875 54.1774 107.135L52.6701 107.135C52.3888 108.211 51.4923 108.849 50.319 108.849C48.5304 108.849 47.379 107.368 47.379 105.091C47.379 102.868 48.5524 101.409 50.319 101.409C51.6461 101.409 52.4415 102.226 52.6701 103.123L54.1774 103.123C53.9225 101.281 52.3624 100.055 50.2926 100.055C47.6339 100.055 45.8673 102.151 45.8673 105.144C45.8673 108.084 47.5548 110.207 50.319 110.207ZM60.3673 110.207C63.026 110.207 64.8145 108.185 64.8145 105.144C64.8145 102.072 63.026 100.055 60.3673 100.055C57.7086 100.055 55.9156 102.072 55.9156 105.144C55.9156 108.185 57.7086 110.207 60.3673 110.207ZM60.3673 108.849C58.3458 108.849 57.4273 107.113 57.4273 105.144C57.4273 103.175 58.3458 101.409 60.3673 101.409C62.3844 101.409 63.3072 103.175 63.3072 105.144C63.3072 107.113 62.3844 108.849 60.3673 108.849ZM67.1157 110L68.623 110L68.623 103.865C68.623 102.424 69.6733 101.409 70.851 101.409C71.9936 101.409 72.7934 102.156 72.7934 103.276L72.7934 110L74.3271 110L74.3271 103.606C74.3271 102.34 75.1181 101.409 76.498 101.409C77.5747 101.409 78.4931 101.98 78.4931 103.43L78.4931 110L80.0048 110L80.0048 103.43C80.0048 101.123 78.7612 100.055 77.0122 100.055C75.6059 100.055 74.5776 100.701 74.0722 101.716L73.9668 101.716C73.4834 100.666 72.6264 100.055 71.3344 100.055C70.0556 100.055 69.1108 100.666 68.7021 101.716L68.5747 101.716L68.5747 100.183L67.1157 100.183L67.1157 110ZM82.7634 110L84.2707 110L84.2707 103.865C84.2707 102.424 85.321 101.409 86.4988 101.409C87.6413 101.409 88.4411 102.156 88.4411 103.276L88.4411 110L89.9748 110L89.9748 103.606C89.9748 102.34 90.7658 101.409 92.1457 101.409C93.2224 101.409 94.1408 101.98 94.1408 103.43L94.1408 110L95.6526 110L95.6526 103.43C95.6526 101.123 94.4089 100.055 92.6599 100.055C91.2536 100.055 90.2253 100.701 89.7199 101.716L89.6145 101.716C89.1311 100.666 88.2741 100.055 86.9822 100.055C85.7033 100.055 84.7585 100.666 84.3498 101.716L84.2224 101.716L84.2224 100.183L82.7634 100.183L82.7634 110ZM104.599 105.988C104.599 107.825 103.192 108.668 102.067 108.668C100.815 108.668 99.9185 107.75 99.9185 106.317L99.9185 100.183L98.4111 100.183L98.4111 106.418C98.4111 108.928 99.7427 110.127 101.584 110.127C103.065 110.127 104.036 109.336 104.498 108.339L104.599 108.339L104.599 110L106.106 110L106.106 100.183L104.599 100.183L104.599 105.988ZM113.14 100.183L111.044 100.183L111.044 97.8315L109.532 97.8315L109.532 100.183L108.051 100.183L108.051 101.461L109.532 101.461L109.532 107.596C109.532 109.31 110.916 110.127 112.195 110.127C112.758 110.127 113.114 110.026 113.32 109.947L113.013 108.594C112.885 108.62 112.679 108.668 112.345 108.668C111.681 108.668 111.044 108.466 111.044 107.188L111.044 101.461L113.14 101.461L113.14 100.183ZM115.414 110L116.921 110L116.921 100.183L115.414 100.183L115.414 110ZM116.183 98.5435C116.772 98.5435 117.255 98.0864 117.255 97.5239C117.255 96.9614 116.772 96.5 116.183 96.5C115.594 96.5 115.106 96.9614 115.106 97.5239C115.106 98.0864 115.594 98.5435 116.183 98.5435ZM121.191 104.094C121.191 102.38 122.255 101.409 123.7 101.409C125.098 101.409 125.95 102.323 125.95 103.865L125.95 110L127.458 110L127.458 103.76C127.458 101.255 126.122 100.055 124.136 100.055C122.65 100.055 121.732 100.719 121.27 101.716L121.143 101.716L121.143 100.183L119.684 100.183L119.684 110L121.191 110L121.191 104.094ZM134.182 113.885C136.533 113.885 138.427 112.812 138.427 110.281L138.427 100.183L136.968 100.183L136.968 101.743L136.814 101.743C136.485 101.229 135.869 100.055 133.953 100.055C131.47 100.055 129.757 102.024 129.757 105.039C129.757 108.106 131.549 109.846 133.927 109.846C135.843 109.846 136.458 108.721 136.788 108.185L136.92 108.185L136.92 110.18C136.92 111.815 135.768 112.558 134.182 112.558C132.398 112.558 131.774 111.617 131.369 111.072L130.17 111.916C130.78 112.949 131.989 113.885 134.182 113.885ZM134.129 108.493C132.239 108.493 131.268 107.06 131.268 105.012C131.268 103.021 132.213 101.409 134.129 101.409C135.97 101.409 136.942 102.894 136.942 105.012C136.942 107.188 135.944 108.493 134.129 108.493ZM146.456 110L147.91 110L147.91 108.493L148.091 108.493C148.424 109.029 149.062 110.207 150.956 110.207C153.408 110.207 155.122 108.238 155.122 105.118C155.122 102.024 153.408 100.055 150.929 100.055C149.013 100.055 148.424 101.229 148.091 101.743L147.963 101.743L147.963 96.9087L146.456 96.9087L146.456 110ZM147.937 105.091C147.937 102.894 148.908 101.409 150.749 101.409C152.67 101.409 153.614 103.021 153.614 105.091C153.614 107.188 152.643 108.849 150.749 108.849C148.934 108.849 147.937 107.315 147.937 105.091ZM161.54 110.207C163.535 110.207 164.99 109.209 165.451 107.724L163.992 107.315C163.61 108.339 162.722 108.849 161.54 108.849C159.769 108.849 158.548 107.706 158.477 105.601L165.605 105.601L165.605 104.964C165.605 101.308 163.43 100.055 161.386 100.055C158.728 100.055 156.961 102.151 156.961 105.166C156.961 108.185 158.701 110.207 161.54 110.207ZM158.477 104.3C158.578 102.771 159.659 101.409 161.386 101.409C163.021 101.409 164.071 102.635 164.071 104.3L158.477 104.3ZM172.177 100.183L170.081 100.183L170.081 97.8315L168.569 97.8315L168.569 100.183L167.088 100.183L167.088 101.461L168.569 101.461L168.569 107.596C168.569 109.31 169.953 110.127 171.232 110.127C171.795 110.127 172.151 110.026 172.357 109.947L172.049 108.594C171.922 108.62 171.716 108.668 171.382 108.668C170.718 108.668 170.081 108.466 170.081 107.188L170.081 101.461L172.177 101.461L172.177 100.183ZM178.722 100.183L176.626 100.183L176.626 97.8315L175.114 97.8315L175.114 100.183L173.634 100.183L173.634 101.461L175.114 101.461L175.114 107.596C175.114 109.31 176.499 110.127 177.778 110.127C178.34 110.127 178.696 110.026 178.903 109.947L178.595 108.594C178.468 108.62 178.261 108.668 177.927 108.668C177.263 108.668 176.626 108.466 176.626 107.188L176.626 101.461L178.722 101.461L178.722 100.183ZM185.012 110.207C187.007 110.207 188.461 109.209 188.923 107.724L187.464 107.315C187.082 108.339 186.194 108.849 185.012 108.849C183.241 108.849 182.019 107.706 181.949 105.601L189.077 105.601L189.077 104.964C189.077 101.308 186.901 100.055 184.858 100.055C182.199 100.055 180.433 102.151 180.433 105.166C180.433 108.185 182.173 110.207 185.012 110.207ZM181.949 104.3C182.05 102.771 183.131 101.409 184.858 101.409C186.493 101.409 187.543 102.635 187.543 104.3L181.949 104.3ZM191.377 110L192.884 110L192.884 103.786C192.884 102.459 193.935 101.488 195.367 101.488C195.767 101.488 196.185 101.562 196.286 101.589L196.286 100.055C196.114 100.042 195.719 100.029 195.495 100.029C194.317 100.029 193.297 100.692 192.937 101.664L192.836 101.664L192.836 100.183L191.377 100.183L191.377 110ZM198.05 110.101C198.682 110.101 199.201 109.583 199.201 108.95C199.201 108.317 198.682 107.803 198.05 107.803C197.417 107.803 196.903 108.317 196.903 108.95C196.903 109.583 197.417 110.101 198.05 110.101Z" fill="#FFFFFF" fill-opacity="0.800000" fill-rule="evenodd"/>
	<path id="Vector" d="M1163 99L988 99C984.15 99 981 95.85 981 92L981 50C981 46.15 984.15 43 988 43L1163 43C1166.85 43 1170 46.15 1170 50L1170 92C1170 95.85 1166.85 99 1163 99Z" fill="#000000" fill-opacity="1.000000" fill-rule="nonzero"/>
	<path id="Vector" d="M1163 44.12C1164.56 44.12 1166.06 44.7395 1167.16 45.8422C1168.26 46.9449 1168.88 48.4406 1168.88 50L1168.88 92C1168.88 93.5594 1168.26 95.0551 1167.16 96.1578C1166.06 97.2605 1164.56 97.88 1163 97.88L988 97.88C986.441 97.88 984.945 97.2605 983.842 96.1578C982.74 95.0551 982.12 93.5594 982.12 92L982.12 50C982.12 48.4406 982.74 46.9449 983.842 45.8422C984.945 44.7395 986.441 44.12 988 44.12L1163 44.12ZM1163 43L988 43C984.15 43 981 46.15 981 50L981 92C981 95.85 984.15 99 988 99L1163 99C1166.85 99 1170 95.85 1170 92L1170 50C1170 46.15 1166.85 43 1163 43Z" fill="#FFFFFF" fill-opacity="1.000000" fill-rule="nonzero"/>
	<path id="Vector" d="M1047.39 57.3358C1047.39 58.5117 1047.04 59.4497 1046.34 60.1357C1045.55 60.9618 1044.53 61.3817 1043.26 61.3817C1042.04 61.3817 1041 60.9618 1040.16 60.1217C1039.32 59.2817 1038.9 58.2318 1038.9 56.9998C1038.9 55.7677 1039.32 54.7178 1040.16 53.8778C1041 53.0377 1042.04 52.6038 1043.26 52.6038C1043.87 52.6038 1044.46 52.7157 1045.01 52.9258C1045.55 53.1498 1046 53.4578 1046.35 53.8497L1045.58 54.6198C1045.33 54.3118 1044.99 54.0598 1044.57 53.8917C1044.16 53.7112 1043.71 53.6206 1043.26 53.6257C1042.35 53.6257 1041.56 53.9478 1040.93 54.5778C1040.3 55.2218 1040 56.0198 1040 56.9857C1040 57.9518 1040.3 58.7498 1040.93 59.3938C1041.56 60.0238 1042.33 60.3457 1043.26 60.3457C1044.1 60.3457 1044.78 60.1078 1045.34 59.6458C1045.9 59.1837 1046.23 58.5258 1046.31 57.7137L1043.26 57.7137L1043.26 56.7058L1047.33 56.7058C1047.36 56.9298 1047.39 57.1398 1047.39 57.3358ZM1053.84 52.7998L1053.84 53.8358L1050.02 53.8358L1050.02 56.4957L1053.46 56.4957L1053.46 57.5038L1050.02 57.5038L1050.02 60.1638L1053.84 60.1638L1053.84 61.1997L1048.94 61.1997L1048.94 52.7998L1053.84 52.7998ZM1058.39 53.8358L1058.39 61.1997L1057.31 61.1997L1057.31 53.8358L1054.96 53.8358L1054.96 52.7998L1060.73 52.7998L1060.73 53.8358L1058.39 53.8358ZM1065.99 61.1997L1064.92 61.1997L1064.92 52.7998L1065.99 52.7998L1065.99 61.1997ZM1070.78 53.8358L1070.78 61.1997L1069.7 61.1997L1069.7 53.8358L1067.35 53.8358L1067.35 52.7998L1073.12 52.7998L1073.12 53.8358L1070.78 53.8358ZM1085.29 56.9998C1085.29 58.2457 1084.87 59.2817 1084.04 60.1217C1083.2 60.9618 1082.18 61.3817 1080.96 61.3817C1079.74 61.3817 1078.72 60.9618 1077.88 60.1217C1077.05 59.2817 1076.63 58.2457 1076.63 56.9998C1076.63 55.7538 1077.05 54.7178 1077.88 53.8778C1078.71 53.0377 1079.73 52.6038 1080.96 52.6038C1082.18 52.6038 1083.2 53.0238 1084.04 53.8778C1084.88 54.7318 1085.29 55.7677 1085.29 56.9998ZM1077.75 56.9998C1077.75 57.9657 1078.06 58.7777 1078.66 59.4077C1079.28 60.0377 1080.05 60.3597 1080.96 60.3597C1081.87 60.3597 1082.64 60.0377 1083.24 59.4077C1083.86 58.7777 1084.17 57.9797 1084.17 56.9998C1084.17 56.0198 1083.86 55.2218 1083.24 54.5918C1082.63 53.9618 1081.87 53.6398 1080.96 53.6398C1080.05 53.6398 1079.28 53.9618 1078.66 54.5918C1078.06 55.2218 1077.75 56.0338 1077.75 56.9998ZM1087.88 61.1997L1086.8 61.1997L1086.8 52.7998L1088.11 52.7998L1092.2 59.3378L1092.24 59.3378L1092.2 57.7137L1092.2 52.7998L1093.28 52.7998L1093.28 61.1997L1092.16 61.1997L1087.89 54.3538L1087.85 54.3538L1087.89 55.9778L1087.89 61.1997L1087.88 61.1997Z" fill="#FFFFFF" fill-opacity="1.000000" fill-rule="nonzero"/>
	<path id="Vector" d="M1046.34 60.1357C1045.55 60.9618 1044.53 61.3817 1043.26 61.3817C1042.04 61.3817 1041 60.9618 1040.16 60.1217C1039.32 59.2817 1038.9 58.2318 1038.9 56.9998C1038.9 55.7677 1039.32 54.7178 1040.16 53.8778C1041 53.0377 1042.04 52.6038 1043.26 52.6038C1043.87 52.6038 1044.46 52.7157 1045.01 52.9258C1045.55 53.1498 1046 53.4578 1046.35 53.8497L1045.58 54.6198C1045.33 54.3118 1044.99 54.0598 1044.57 53.8917C1044.16 53.7112 1043.71 53.6206 1043.26 53.6257C1042.35 53.6257 1041.56 53.9478 1040.93 54.5778C1040.3 55.2218 1040 56.0198 1040 56.9857C1040 57.9518 1040.3 58.7498 1040.93 59.3938C1041.56 60.0238 1042.33 60.3457 1043.26 60.3457C1044.1 60.3457 1044.78 60.1078 1045.34 59.6458C1045.9 59.1837 1046.23 58.5258 1046.31 57.7137L1043.26 57.7137L1043.26 56.7058L1047.33 56.7058C1047.36 56.9298 1047.39 57.1398 1047.39 57.3358C1047.39 58.5117 1047.04 59.4497 1046.34 60.1357ZM1053.84 53.8358L1050.02 53.8358L1050.02 56.4957L1053.46 56.4957L1053.46 57.5038L1050.02 57.5038L1050.02 60.1638L1053.84 60.1638L1053.84 61.1997L1048.94 61.1997L1048.94 52.7998L1053.84 52.7998L1053.84 53.8358ZM1058.39 61.1997L1057.31 61.1997L1057.31 53.8358L1054.96 53.8358L1054.96 52.7998L1060.73 52.7998L1060.73 53.8358L1058.39 53.8358L1058.39 61.1997ZM1064.92 61.1997L1064.92 52.7998L1065.99 52.7998L1065.99 61.1997L1064.92 61.1997ZM1070.78 61.1997L1069.7 61.1997L1069.7 53.8358L1067.35 53.8358L1067.35 52.7998L1073.12 52.7998L1073.12 53.8358L1070.78 53.8358L1070.78 61.1997ZM1084.04 60.1217C1083.2 60.9618 1082.18 61.3817 1080.96 61.3817C1079.74 61.3817 1078.72 60.9618 1077.88 60.1217C1077.05 59.2817 1076.63 58.2457 1076.63 56.9998C1076.63 55.7538 1077.05 54.7178 1077.88 53.8778C1078.71 53.0377 1079.73 52.6038 1080.96 52.6038C1082.18 52.6038 1083.2 53.0238 1084.04 53.8778C1084.88 54.7318 1085.29 55.7677 1085.29 56.9998C1085.29 58.2457 1084.87 59.2817 1084.04 60.1217ZM1078.66 59.4077C1079.28 60.0377 1080.05 60.3597 1080.96 60.3597C1081.87 60.3597 1082.64 60.0377 1083.24 59.4077C1083.86 58.7777 1084.17 57.9797 1084.17 56.9998C1084.17 56.0198 1083.86 55.2218 1083.24 54.5918C1082.63 53.9618 1081.87 53.6398 1080.96 53.6398C1080.05 53.6398 1079.28 53.9618 1078.66 54.5918C1078.06 55.2218 1077.75 56.0338 1077.75 56.9998C1077.75 57.9657 1078.06 58.7777 1078.66 59.4077ZM1086.8 61.1997L1086.8 52.7998L1088.11 52.7998L1092.2 59.3378L1092.24 59.3378L1092.2 57.7137L1092.2 52.7998L1093.28 52.7998L1093.28 61.1997L1092.16 61.1997L1087.89 54.3538L1087.85 54.3538L1087.89 55.9778L1087.89 61.1997L1087.88 61.1997L1086.8 61.1997Z" stroke="#FFFFFF" stroke-opacity="1.000000" stroke-width="0.500000"/>
	<path id="Vector" d="M1076.4 73.4498C1073.11 73.4498 1070.42 75.9559 1070.42 79.3999C1070.42 82.8298 1073.11 85.3499 1076.4 85.3499C1079.69 85.3499 1082.37 82.8298 1082.37 79.3999C1082.37 75.9559 1079.69 73.4498 1076.4 73.4498ZM1076.4 83.0118C1074.59 83.0118 1073.04 81.5278 1073.04 79.3999C1073.04 77.2579 1074.59 75.7878 1076.4 75.7878C1078.2 75.7878 1079.76 77.2579 1079.76 79.3999C1079.76 81.5278 1078.19 83.0118 1076.4 83.0118ZM1063.35 73.4498C1060.06 73.4498 1057.37 75.9559 1057.37 79.3999C1057.37 82.8298 1060.06 85.3499 1063.35 85.3499C1066.64 85.3499 1069.33 82.8298 1069.33 79.3999C1069.33 75.9559 1066.64 73.4498 1063.35 73.4498ZM1063.35 83.0118C1061.54 83.0118 1059.99 81.5278 1059.99 79.3999C1059.99 77.2579 1061.54 75.7878 1063.35 75.7878C1065.15 75.7878 1066.71 77.2579 1066.71 79.3999C1066.71 81.5278 1065.15 83.0118 1063.35 83.0118ZM1047.84 75.2839L1047.84 77.8038L1053.88 77.8038C1053.7 79.2179 1053.23 80.2678 1052.51 80.9819C1051.63 81.8639 1050.26 82.8298 1047.85 82.8298C1044.13 82.8298 1041.21 79.8339 1041.21 76.1099C1041.21 72.3859 1044.13 69.3899 1047.85 69.3899C1049.85 69.3899 1051.32 70.1738 1052.4 71.1959L1054.18 69.4178C1052.67 67.9758 1050.66 66.8699 1047.84 66.8699C1042.74 66.8699 1038.46 71.0139 1038.46 76.1239C1038.46 81.2198 1042.74 85.3779 1047.84 85.3779C1050.59 85.3779 1052.67 84.4818 1054.29 82.7878C1055.96 81.1218 1056.47 78.7699 1056.47 76.8799C1056.47 76.2919 1056.43 75.7458 1056.33 75.2979L1047.84 75.2979L1047.84 75.2839ZM1111.27 77.2439C1110.78 75.9138 1109.27 73.4498 1106.17 73.4498C1103.11 73.4498 1100.56 75.8579 1100.56 79.3999C1100.56 82.7319 1103.08 85.3499 1106.47 85.3499C1109.2 85.3499 1110.78 83.6838 1111.42 82.7179L1109.39 81.3599C1108.72 82.3539 1107.8 83.0118 1106.47 83.0118C1105.14 83.0118 1104.19 82.4099 1103.58 81.2059L1111.55 77.9159L1111.27 77.2439ZM1103.15 79.2319C1103.08 76.9359 1104.93 75.7599 1106.26 75.7599C1107.29 75.7599 1108.18 76.2778 1108.47 77.0199L1103.15 79.2319ZM1096.68 84.9999L1099.3 84.9999L1099.3 67.4999L1096.68 67.4999L1096.68 84.9999ZM1092.4 74.7799L1092.3 74.7799C1091.71 74.0798 1090.59 73.4498 1089.16 73.4498C1086.18 73.4498 1083.45 76.0679 1083.45 79.4279C1083.45 82.7599 1086.18 85.3639 1089.16 85.3639C1090.58 85.3639 1091.71 84.7339 1092.3 84.0059L1092.38 84.0059L1092.38 84.8599C1092.38 87.1418 1091.17 88.3599 1089.21 88.3599C1087.61 88.3599 1086.62 87.2119 1086.21 86.2458L1083.93 87.1979C1084.59 88.7799 1086.32 90.7119 1089.21 90.7119C1092.27 90.7119 1094.86 88.9059 1094.86 84.5099L1094.86 73.8138L1092.38 73.8138L1092.38 74.7799L1092.4 74.7799ZM1089.39 83.0118C1087.58 83.0118 1086.07 81.4999 1086.07 79.4279C1086.07 77.3279 1087.58 75.8019 1089.39 75.8019C1091.17 75.8019 1092.57 77.3419 1092.57 79.4279C1092.58 81.4999 1091.18 83.0118 1089.39 83.0118ZM1123.53 67.4999L1117.28 67.4999L1117.28 84.9999L1119.89 84.9999L1119.89 78.3639L1123.55 78.3639C1126.45 78.3639 1129.29 76.2639 1129.29 72.9319C1129.27 69.5999 1126.42 67.4999 1123.53 67.4999ZM1123.59 75.9279L1119.88 75.9279L1119.88 69.9219L1123.59 69.9219C1125.55 69.9219 1126.66 71.5459 1126.66 72.9178C1126.66 74.2899 1125.55 75.9279 1123.59 75.9279ZM1139.75 73.4219C1137.86 73.4219 1135.9 74.2618 1135.08 76.0958L1137.41 77.0619C1137.9 76.0958 1138.82 75.7739 1139.79 75.7739C1141.13 75.7739 1142.52 76.5858 1142.53 78.0278L1142.53 78.2098C1142.06 77.9438 1141.05 77.5378 1139.8 77.5378C1137.3 77.5378 1134.76 78.9099 1134.76 81.4719C1134.76 83.8098 1136.81 85.3219 1139.1 85.3219C1140.85 85.3219 1141.83 84.5378 1142.43 83.6139L1142.52 83.6139L1142.52 84.9579L1145.04 84.9579L1145.04 78.2518C1145.05 75.1578 1142.73 73.4219 1139.75 73.4219ZM1139.42 83.0118C1138.57 83.0118 1137.38 82.5779 1137.38 81.5278C1137.38 80.1838 1138.86 79.6659 1140.15 79.6659C1141.3 79.6659 1141.85 79.9178 1142.53 80.2539C1142.43 81.0116 1142.07 81.7085 1141.49 82.2156C1140.92 82.7227 1140.19 83.0055 1139.42 83.0118ZM1154.24 73.7999L1151.24 81.3878L1151.16 81.3878L1148.05 73.7999L1145.23 73.7999L1149.9 84.4119L1147.24 90.3059L1149.97 90.3059L1157.15 73.7999L1154.24 73.7999ZM1130.72 84.9999L1133.33 84.9999L1133.33 67.4999L1130.72 67.4999L1130.72 84.9999Z" fill="#FFFFFF" fill-opacity="1.000000" fill-rule="nonzero"/>
	<path id="Vector" d="M995.098 55.9919C995.014 56.328 994.958 56.6639 994.958 57.028L994.958 84.986C994.958 85.35 995 85.6859 995.098 86.022L1010.51 70.6079L995.098 55.9919Z" fill="#4285F4" fill-opacity="1.000000" fill-rule="nonzero"/>
	<path id="Vector" d="M1010.01 70.188L995.098 86.0079L995.098 86.022C995.259 86.6212 995.557 87.1752 995.968 87.6405C996.378 88.1057 996.891 88.4698 997.466 88.7042C998.04 88.9387 998.661 89.0372 999.28 88.9921C999.899 88.9469 1000.5 88.7594 1001.03 88.444L1001.08 88.416L1017.85 78.7419L1010.01 70.188Z" fill="#EA4335" fill-opacity="1.000000" fill-rule="nonzero"/>
	<path id="Vector" d="M1025.09 67.4999L1025.07 67.4858L1017.83 63.2859L1009.67 70.5519L1017.86 78.7419L1025.07 74.5839C1025.71 74.2386 1026.24 73.7278 1026.61 73.1052C1026.99 72.4825 1027.18 71.7712 1027.18 71.046C1027.19 70.3209 1026.99 69.6088 1026.62 68.9846C1026.25 68.3606 1025.72 67.8477 1025.09 67.4999Z" fill="#FBBC04" fill-opacity="1.000000" fill-rule="nonzero"/>
	<path id="Vector" d="M1010.12 70.9999L1017.83 63.2858L1001.08 53.5698C1000.54 53.2495 999.938 53.0575 999.315 53.0089C998.693 52.9602 998.068 53.0563 997.489 53.2896C996.91 53.5227 996.393 53.8867 995.978 54.3531C995.563 54.8196 995.262 55.3756 995.098 55.9778L1010.12 70.9999Z" fill="#34A853" fill-opacity="1.000000" fill-rule="nonzero"/>
	<line id="Line 1" x1="1170.000000" y1="166.750000" x2="0.000000" y2="166.750000" stroke="#FFFFFF" stroke-opacity="0.300000" stroke-width="1.500000" stroke-dasharray="5.000000,5.000000"/>
</svg>
